<?xml version="1.0" standalone="no"?>
<!DOCTYPE svg PUBLIC "-//W3C//DTD SVG 20010904//EN"
 "http://www.w3.org/TR/2001/REC-SVG-20010904/DTD/svg10.dtd">
<svg version="1.0" xmlns="http://www.w3.org/2000/svg"
 width="1280.000000pt" height="990.000000pt" viewBox="0 0 1280.000000 990.000000"
 preserveAspectRatio="xMidYMid meet">
<metadata>
Created by potrace 1.15, written by Peter Selinger 2001-2017
</metadata>
<g transform="translate(0.000000,990.000000) scale(0.100000,-0.100000)"
fill="#000000" stroke="none">
<path d="M4158 9893 c-2 -5 -3 -143 -4 -308 -1 -328 -4 -390 -21 -420 -6 -11
-31 -69 -56 -130 -24 -60 -79 -186 -121 -279 -43 -93 -122 -273 -178 -400 -55
-127 -162 -373 -238 -546 -76 -173 -163 -376 -194 -450 -31 -74 -98 -228 -148
-342 l-91 -206 -39 -4 -39 -4 -556 559 c-305 307 -564 562 -575 568 -52 28
-65 -31 -18 -76 20 -19 30 -38 30 -59 0 -16 -24 -120 -54 -230 -30 -111 -87
-320 -126 -466 -39 -146 -100 -371 -135 -500 -35 -129 -87 -327 -115 -440 -77
-305 -111 -429 -225 -825 -57 -198 -138 -488 -180 -645 -42 -157 -92 -334
-110 -395 -19 -60 -68 -231 -110 -380 -41 -148 -96 -337 -121 -420 -24 -82
-67 -229 -93 -325 -27 -96 -58 -200 -70 -230 -11 -30 -43 -136 -71 -235 -29
-99 -82 -272 -120 -385 -37 -113 -75 -231 -84 -263 l-17 -58 -72 3 c-79 3 -92
-7 -59 -50 19 -25 40 -29 269 -57 68 -8 136 -21 153 -30 23 -12 35 -13 50 -5
20 11 338 -19 1288 -120 205 -22 375 -40 378 -40 3 0 0 -10 -7 -21 -11 -21
-16 -22 -115 -15 -123 8 -866 89 -1009 110 -55 8 -155 18 -222 22 l-123 7 -10
-27 c-15 -41 -13 -50 21 -70 17 -10 37 -34 45 -53 17 -39 37 -39 42 0 2 15 9
27 17 27 7 0 95 -11 196 -25 101 -14 185 -25 186 -25 10 0 41 -80 33 -85 -15
-9 -119 3 -298 37 -90 16 -175 27 -188 24 -47 -12 -25 -114 39 -185 18 -20 46
-55 62 -78 20 -28 40 -43 60 -47 64 -11 288 -27 406 -27 l124 -1 135 -58 c176
-75 290 -130 290 -140 0 -4 -25 -18 -55 -30 -34 -14 -70 -39 -96 -67 l-41 -45
-152 0 c-83 0 -164 5 -179 11 -39 15 -57 14 -57 -4 0 -11 -11 -15 -40 -15 -28
0 -40 4 -40 14 0 23 -20 30 -34 11 -11 -16 -21 -16 -149 0 -105 13 -146 14
-169 6 -60 -21 -162 -25 -189 -8 -31 20 -144 24 -424 13 -134 -5 -232 -4 -270
2 -62 11 -89 2 -67 -20 8 -8 105 -14 324 -20 172 -4 356 -11 408 -14 56 -4
133 -2 190 6 84 10 118 9 287 -9 106 -11 205 -18 220 -15 15 3 66 -4 113 -15
47 -12 108 -21 137 -21 88 0 68 -17 -28 -23 -93 -6 -110 -11 -93 -26 8 -9 87
-12 322 -12 62 0 104 -5 130 -16 46 -20 270 -21 377 -3 166 28 277 19 360 -29
25 -15 44 -17 113 -11 45 3 87 11 93 17 7 7 41 4 107 -8 88 -16 118 -17 310
-6 165 9 223 8 258 -1 25 -7 89 -17 142 -22 53 -6 124 -15 157 -20 167 -27
285 -24 590 16 128 16 133 16 316 -7 163 -20 192 -21 227 -10 35 12 52 11 124
-4 46 -9 137 -19 203 -22 66 -3 125 -9 130 -13 15 -12 110 -37 204 -54 109
-21 213 -21 257 0 32 16 41 15 117 -1 45 -9 148 -19 229 -22 156 -6 178 -1
178 38 0 17 -9 19 -72 20 -40 0 -113 5 -163 9 -241 24 -347 29 -366 20 -24
-14 -204 -17 -291 -7 -59 8 -68 11 -68 29 0 21 3 21 156 15 103 -4 174 -2 208
5 79 18 148 15 309 -15 156 -30 233 -34 388 -20 72 6 102 13 117 26 19 17 25
18 79 6 35 -8 127 -13 233 -14 144 0 180 3 205 16 24 14 33 15 50 4 20 -13
142 -29 313 -41 85 -6 96 -5 122 15 31 23 99 28 142 12 56 -21 287 -34 411
-22 185 17 353 15 407 -4 36 -13 94 -17 280 -19 129 -2 280 -6 335 -10 70 -6
136 -3 219 7 109 14 132 14 305 -4 214 -21 265 -23 256 -9 -3 6 -36 10 -72 10
-36 0 -129 10 -207 21 -118 18 -159 20 -251 13 -60 -5 -156 -9 -213 -9 -91 0
-105 2 -118 19 -13 18 -18 19 -91 7 -114 -18 -368 -27 -359 -13 4 8 38 12 87
12 66 0 81 3 87 18 17 42 84 124 173 212 89 90 151 141 475 396 71 56 160 130
197 164 95 88 187 202 187 234 0 20 5 26 23 26 12 0 186 13 387 30 201 16 415
32 475 36 l111 7 27 -37 c25 -32 30 -34 48 -23 17 10 19 19 14 52 l-6 41 253
211 c254 211 680 574 1031 876 175 152 195 166 320 227 72 36 133 72 135 80 1
9 -3 23 -10 33 -13 17 -17 17 -82 -8 -37 -14 -130 -52 -206 -85 -76 -33 -145
-60 -153 -60 -8 0 -39 22 -69 48 -29 27 -105 93 -168 147 -279 237 -1068 999
-1444 1393 -417 436 -526 555 -851 931 -51 58 -355 427 -475 575 -36 45 -87
108 -114 140 -56 69 -53 76 46 76 64 0 95 12 63 24 -8 3 -15 12 -15 20 0 21
-23 26 -121 26 l-89 0 -44 60 c-49 67 -49 62 -61 360 -10 227 -46 424 -107
583 -34 90 -108 227 -149 276 -15 19 -26 38 -23 43 3 4 50 8 104 8 55 0 102 4
105 10 4 6 -38 10 -119 10 -119 0 -156 4 -156 19 0 3 65 5 145 3 121 -3 145
-1 145 11 0 16 -82 21 -603 33 l-269 6 -27 38 c-35 49 -77 128 -70 134 14 15
504 -99 598 -139 34 -14 60 -20 65 -14 18 16 29 286 16 384 -20 154 -56 288
-110 402 -27 58 -50 110 -50 116 0 6 24 7 64 3 73 -7 102 -1 86 19 -6 8 -10
22 -8 32 2 15 -6 19 -52 25 -30 3 -90 6 -132 7 -42 1 -87 5 -100 11 -13 5
-230 23 -483 40 -253 17 -469 32 -480 35 -11 3 -34 26 -52 52 -32 49 -41 96
-56 300 -5 63 -21 87 -48 72 -19 -10 -19 -19 -13 -210 l7 -199 -44 0 c-24 0
-96 5 -159 10 -193 16 -1250 82 -1339 83 -69 2 -85 -1 -95 -15 -21 -34 13 -50
131 -62 l108 -11 27 -51 c44 -82 59 -155 59 -294 -1 -137 -9 -201 -42 -317
-35 -126 -111 -263 -196 -354 l-46 -49 -146 0 c-80 0 -152 -4 -159 -9 -21 -13
5 -58 41 -71 16 -5 81 -10 143 -10 l114 0 29 -40 c57 -79 118 -323 101 -404
-5 -29 -15 -20 -246 244 -586 671 -849 984 -945 1125 -30 44 -109 145 -175
225 -65 80 -130 161 -144 180 -27 38 -27 25 -12 345 l7 140 31 3 c17 2 55 -6
84 -18 68 -27 206 -30 264 -5 45 19 99 15 214 -16 132 -36 178 -5 62 41 -36
14 -92 39 -125 56 -56 27 -68 29 -180 30 -110 0 -127 3 -203 32 -46 18 -97 32
-113 32 -33 0 -89 25 -89 40 0 12 -29 14 -32 3z m232 -109 c84 -30 117 -36
165 -34 117 5 151 2 199 -19 27 -12 47 -23 45 -25 -2 -2 -31 0 -64 4 -41 5
-84 3 -135 -7 -89 -18 -172 -12 -248 17 -29 11 -67 19 -85 18 -28 -3 -32 0
-35 25 -8 69 11 71 158 21z m-180 -726 c0 -109 -18 -110 -21 -2 -2 64 4 94 17
94 2 0 4 -41 4 -92z m131 -20 c102 -123 156 -194 175 -230 7 -14 57 -191 109
-393 53 -203 97 -371 99 -374 2 -3 33 -134 70 -291 62 -273 142 -721 186
-1050 33 -250 27 -554 -16 -772 -17 -84 -13 -104 15 -89 12 7 23 36 35 90 l17
81 33 0 c18 0 35 -2 38 -5 3 -3 39 -7 79 -10 72 -3 228 -33 281 -54 23 -9 27
-17 34 -68 20 -161 -37 -663 -76 -663 -5 0 -67 75 -137 168 -70 92 -258 338
-418 547 -513 670 -596 784 -587 803 5 9 6 28 3 42 -6 24 -12 25 -91 31 l-85
5 77 2 c42 1 79 6 82 11 4 6 -4 1069 -17 2114 -1 114 1 207 4 207 3 0 43 -46
90 -102z m1448 46 c2 -2 -23 -4 -57 -4 -34 0 -62 4 -62 9 0 9 109 3 119 -5z
m191 -13 c-48 -5 -52 -8 -35 -18 26 -15 168 -28 560 -53 176 -11 434 -29 574
-40 139 -11 263 -17 275 -14 18 4 28 -7 65 -68 25 -40 104 -165 177 -278 188
-293 423 -664 421 -667 -1 -1 -152 1 -335 4 l-332 6 0 104 0 104 128 -6 c70
-4 172 -11 227 -15 95 -9 125 -4 111 18 -8 13 -95 22 -334 36 -302 17 -841 -3
-1075 -40 -54 -9 -100 -14 -102 -12 -3 2 27 51 66 108 82 122 103 160 90 160
-10 0 -127 -172 -161 -237 -12 -24 -23 -43 -25 -43 -1 0 -56 -11 -121 -25 -65
-13 -120 -22 -123 -19 -3 3 1 15 9 27 55 88 188 332 184 336 -9 9 -29 -24
-131 -207 l-92 -166 -137 -33 c-76 -18 -139 -32 -140 -30 -2 2 14 26 35 55 63
84 148 266 176 377 34 133 43 303 21 405 -9 41 -33 109 -53 150 -21 41 -39 78
-41 83 -2 4 36 6 85 5 78 -1 82 -2 33 -7z m-1830 -64 c0 -20 -6 -46 -12 -57
-10 -15 -10 -22 0 -32 6 -6 12 -25 12 -41 0 -15 -54 -225 -119 -465 -66 -240
-147 -540 -180 -667 -173 -659 -359 -1347 -367 -1355 -3 -2 -9 1 -13 8 -4 7
-14 10 -22 7 -9 -3 -73 54 -178 159 l-164 164 21 43 c74 157 154 340 222 504
43 105 132 312 198 460 66 149 149 340 185 425 36 85 91 211 122 280 32 69 99
222 150 340 121 280 127 293 137 278 4 -7 8 -30 8 -51z m2287 43 c175 -11 370
-24 433 -30 63 -5 186 -14 272 -20 87 -6 168 -15 180 -20 32 -12 16 -12 -182
5 -96 8 -325 24 -508 35 -349 22 -627 47 -555 49 24 0 186 -8 360 -19z m863 0
c0 -5 -4 -10 -10 -10 -5 0 -10 5 -10 10 0 6 5 10 10 10 6 0 10 -4 10 -10z
m299 -86 c10 -9 -166 -3 -179 6 -10 7 15 8 80 4 52 -4 97 -8 99 -10z m116 -39
c116 -8 288 -22 383 -30 225 -19 256 -19 248 0 -9 24 6 17 57 -26 134 -115
240 -489 221 -780 -3 -60 -9 -109 -13 -109 -3 0 -47 14 -96 31 -141 48 -383
105 -528 124 l-48 6 -136 207 c-215 327 -373 580 -373 598 0 3 17 4 38 0 20
-3 132 -13 247 -21z m857 -44 c4 -4 -19 -4 -52 -1 -32 3 -63 9 -67 14 -10 10
109 -3 119 -13z m-4345 -1011 c4 -547 7 -1001 5 -1007 -2 -7 -13 -13 -23 -13
-17 0 -18 5 -11 53 9 66 4 1418 -7 1712 -8 209 -3 281 19 259 4 -5 12 -457 17
-1004z m-76 -30 l1 -855 -46 -29 c-38 -24 -47 -35 -52 -67 -4 -21 -13 -40 -22
-44 -13 -5 -13 -8 2 -24 11 -12 13 -21 7 -25 -6 -4 -4 -16 5 -34 16 -30 18
-73 5 -88 -4 -5 -5 -78 0 -164 11 -215 11 -374 0 -386 -6 -5 -5 -33 1 -68 8
-45 8 -64 -2 -79 -8 -14 -9 -22 -1 -30 11 -11 16 -167 5 -167 -4 0 -122 116
-264 258 l-257 258 -5 54 c-5 45 3 85 48 240 29 102 98 361 154 575 91 351
197 745 342 1275 28 102 55 202 61 223 5 21 11 36 13 35 2 -2 4 -388 5 -858z
m488 757 c23 -132 5 -129 -28 5 -25 105 -25 109 -2 81 11 -13 24 -51 30 -86z
m151 -132 c36 -44 100 -122 144 -173 l81 -94 -3 -186 c-2 -116 1 -193 7 -202
8 -11 11 25 12 120 0 74 4 157 7 185 l7 50 340 -389 c187 -213 346 -398 354
-411 13 -21 12 -33 -9 -112 -63 -244 -232 -589 -358 -733 -38 -43 -40 -32 -12
90 17 78 19 102 5 88 -3 -3 -17 -59 -31 -124 -14 -65 -30 -124 -36 -131 -10
-12 -78 -19 -78 -7 0 3 15 89 34 192 43 230 51 287 35 252 -5 -14 -26 -113
-45 -220 -19 -107 -37 -206 -40 -219 -4 -20 -9 -22 -36 -17 -17 3 -33 8 -35
10 -2 2 5 66 16 142 11 77 29 216 40 309 12 94 24 190 27 215 4 29 2 42 -4 35
-10 -10 -74 -470 -88 -629 -5 -65 -10 -79 -25 -83 -11 -3 -19 -12 -19 -19 0
-8 -6 -14 -14 -14 -10 0 -16 19 -20 68 -18 198 -42 377 -86 642 -64 386 -80
464 -176 856 -29 119 -35 166 -39 290 -2 81 -7 173 -11 205 -6 54 -18 89 -27
79 -3 -3 2 -77 10 -165 17 -197 14 -223 -13 -120 -34 127 -36 138 -23 129 12
-7 10 49 -7 186 l-7 54 29 -34 c17 -19 59 -71 94 -115z m2380 -332 c0 -47 -25
-183 -34 -185 -14 -4 -928 10 -1166 19 -134 4 -177 8 -155 15 61 18 534 109
670 128 126 18 383 34 603 38 71 2 82 0 82 -15z m66 -10 c4 -14 2 -40 -4 -57
-7 -18 -8 -34 -3 -39 6 -6 5 -17 -2 -28 -9 -14 -9 -21 1 -31 20 -20 14 -30
-15 -26 -28 3 -28 3 -27 78 2 108 33 172 50 103z m94 -173 c0 -5 -4 -10 -10
-10 -5 0 -10 5 -10 10 0 6 5 10 10 10 6 0 10 -4 10 -10z m-810 -25 c228 -3
493 -8 589 -10 l174 -3 72 -139 c39 -76 121 -219 182 -318 108 -177 308 -563
363 -700 15 -38 44 -109 64 -157 20 -48 36 -95 36 -103 0 -13 -29 -15 -204
-15 -231 0 -207 -10 -225 94 -6 33 -11 71 -11 84 l0 25 160 -5 c89 -3 163 -1
166 4 3 5 1 15 -6 23 -9 11 -73 13 -353 10 -343 -3 -709 -25 -987 -60 -69 -9
-135 -13 -147 -10 -12 3 -24 1 -27 -4 -3 -4 -31 -11 -63 -15 -32 -4 -107 -15
-168 -26 -60 -10 -207 -35 -325 -55 -118 -20 -242 -43 -275 -51 -79 -18 -78
-18 -71 12 l7 27 -25 -30 c-24 -29 -66 -50 -66 -34 0 4 18 32 41 62 104 138
239 398 302 579 75 218 79 240 75 377 -4 111 -9 141 -37 222 -17 52 -45 117
-62 144 l-30 49 53 -6 c81 -9 1518 -30 1525 -22 3 3 3 9 -1 13 -9 10 -415 21
-1058 29 -347 4 -516 10 -511 17 4 6 78 8 217 3 116 -3 398 -8 626 -11z m-962
-2 c-26 -2 -71 -2 -100 0 -29 2 -8 3 47 3 55 0 79 -1 53 -3z m2488 -26 c0 -1
42 -60 94 -132 51 -71 128 -195 170 -275 42 -80 121 -228 175 -330 105 -196
277 -552 270 -558 -2 -2 -48 5 -102 17 -128 27 -314 56 -488 76 -76 9 -140 17
-140 18 0 1 -21 34 -46 72 -25 39 -101 165 -168 280 -122 207 -241 409 -351
595 -86 144 -130 226 -130 240 0 10 69 11 358 5 196 -4 357 -8 358 -8z m482
-13 c95 -5 112 -8 112 -22 0 -10 23 -43 50 -75 115 -135 214 -371 254 -607 12
-74 35 -367 36 -472 0 -33 -18 -18 -81 70 -35 48 -122 164 -194 258 -71 94
-191 261 -265 370 -74 108 -181 261 -237 338 -56 77 -100 143 -98 146 4 6 265
3 423 -6z m-5502 -1131 c-9 -9 -1006 995 -1006 1012 0 5 228 -218 507 -497
279 -279 503 -511 499 -515z m-993 939 l68 -68 -37 -108 c-19 -60 -38 -134
-40 -165 l-4 -56 35 100 c19 54 35 107 35 117 0 10 7 35 15 55 l16 37 75 -75
c42 -40 152 -153 244 -250 l169 -176 -19 -39 c-11 -21 -20 -52 -19 -69 1 -29
1 -29 22 15 37 75 36 75 67 45 l28 -27 -18 -31 c-18 -32 -71 -176 -84 -229 -3
-16 -2 -28 3 -28 14 0 59 97 71 153 6 27 19 65 28 84 l18 34 284 -293 c157
-161 446 -456 644 -655 314 -317 358 -365 352 -385 -19 -61 -18 -143 1 -188
17 -39 18 -51 8 -90 -7 -25 -63 -236 -124 -470 -62 -234 -175 -659 -251 -945
-76 -286 -168 -635 -204 -775 -142 -552 -255 -983 -261 -988 -3 -3 -200 -7
-438 -8 -634 -2 -1007 -32 -1616 -130 -85 -13 -156 -23 -158 -21 -2 2 43 73
100 158 57 85 125 193 151 242 60 110 148 306 144 319 -2 6 -33 -50 -68 -123
-70 -147 -175 -328 -282 -486 -78 -114 -89 -126 -117 -121 -19 3 -8 27 100
228 205 382 467 916 455 927 -3 4 -8 4 -10 2 -2 -2 -87 -173 -189 -379 -102
-206 -235 -467 -294 -580 l-108 -205 -50 -12 c-40 -10 -52 -10 -63 1 -21 20
-18 95 6 166 29 87 135 531 167 700 27 146 165 707 239 972 25 89 64 231 86
313 23 83 73 263 111 400 39 138 99 356 134 485 36 129 102 348 149 485 123
366 208 714 260 1065 47 312 57 371 106 620 27 135 58 273 70 308 12 34 18 66
15 72 -11 17 -38 7 -40 -15 -2 -11 -14 -63 -29 -115 -14 -52 -42 -185 -61
-295 -19 -110 -41 -234 -49 -275 -8 -41 -24 -138 -36 -215 -62 -397 -106 -575
-325 -1295 -24 -80 -72 -242 -105 -360 -34 -118 -103 -354 -155 -525 -99 -329
-127 -431 -254 -915 -101 -385 -122 -479 -165 -723 -30 -170 -138 -619 -167
-694 -5 -14 -21 -34 -35 -45 -15 -13 -24 -28 -22 -42 1 -11 -1 -27 -6 -34 -4
-7 -5 -24 -2 -37 4 -15 -1 -31 -12 -46 l-19 -22 -119 14 c-116 14 -119 15
-122 40 -2 14 20 90 48 170 67 190 290 950 449 1526 44 159 98 342 120 408 22
66 63 203 90 305 51 191 183 671 271 985 105 375 170 618 230 850 78 305 158
605 270 1015 132 478 132 480 144 480 7 0 42 -31 79 -68z m6694 -749 c521
-697 1229 -1555 1588 -1923 93 -97 237 -248 319 -335 389 -416 1165 -1170
1406 -1365 102 -83 223 -194 205 -188 -5 2 -59 23 -120 47 -290 115 -1219 304
-1650 336 -44 3 -161 12 -260 21 -99 8 -233 14 -298 13 -65 -1 -120 1 -123 3
-2 3 -11 43 -19 90 -18 99 -148 619 -206 823 -22 77 -69 230 -104 340 -35 110
-82 263 -105 339 -49 165 -177 528 -250 711 -29 72 -69 178 -90 237 -61 168
-124 317 -232 548 -92 195 -271 547 -320 628 -50 82 11 6 259 -325z m-4611
-38 c-3 -9 3 -19 14 -25 29 -16 24 -30 -10 -30 -25 0 -30 4 -30 23 0 13 5 28
12 35 16 16 21 15 14 -3z m3997 -405 c80 -136 336 -521 512 -770 45 -63 159
-225 255 -360 95 -135 230 -319 299 -410 70 -91 164 -217 210 -280 46 -63 92
-121 102 -130 32 -27 226 -779 246 -950 6 -55 24 -103 43 -115 5 -3 23 1 39
10 38 19 149 19 386 0 99 -8 188 -15 197 -15 9 0 122 -114 251 -252 129 -139
300 -324 381 -410 81 -87 143 -158 138 -158 -5 0 -57 13 -115 30 -201 56 -412
107 -572 138 -479 93 -599 111 -1097 159 l-76 8 50 85 c63 107 80 124 254 262
79 62 145 119 148 126 14 34 -42 3 -145 -79 -63 -51 -120 -96 -126 -102 -7 -5
5 30 27 77 22 48 40 94 40 103 0 26 -11 9 -46 -71 -51 -119 -98 -179 -217
-282 -60 -52 -112 -93 -113 -91 -2 2 55 128 127 280 72 152 129 282 126 289
-3 7 -20 -21 -38 -62 -19 -41 -84 -177 -146 -301 -124 -250 -114 -239 -218
-239 -107 0 -100 -11 -114 173 l-13 162 50 105 c87 185 239 586 227 598 -8 8
-11 2 -45 -103 -31 -94 -185 -477 -217 -538 -8 -16 -17 -27 -19 -24 -3 2 -11
40 -20 84 -15 80 -15 81 11 139 97 217 205 529 205 593 0 29 -10 2 -44 -116
-38 -133 -175 -493 -187 -493 -9 0 -18 42 -55 257 l-26 152 66 188 c68 192
116 360 116 409 0 47 -11 20 -36 -93 -24 -104 -129 -429 -145 -447 -7 -8 -20
32 -34 104 -10 53 -84 371 -95 405 -5 17 -37 138 -70 269 -82 322 -217 793
-287 996 -62 179 -192 526 -274 730 -44 107 -79 199 -79 204 0 10 116 -164
163 -244z m-3873 200 c0 -6 -9 -10 -20 -10 -13 0 -20 7 -20 20 0 18 3 19 20
10 11 -6 20 -15 20 -20z m-80 -1 c0 -17 -5 -20 -32 -17 -22 2 -34 9 -36 21 -3
14 4 17 32 17 30 0 36 -4 36 -21z m-885 -186 c92 -95 164 -177 160 -183 -6
-10 -344 328 -354 352 -12 34 47 -19 194 -169z m4083 150 c-1 -10 1 -23 5 -30
4 -6 3 -14 -2 -17 -15 -9 -22 10 -15 39 7 28 17 34 12 8z m107 -5 c11 -50 35
-170 35 -179 0 -5 -18 -9 -40 -9 l-40 0 0 44 c0 23 -3 71 -6 105 -7 61 -7 61
19 61 19 0 28 -6 32 -22z m78 -55 c10 -43 20 -88 23 -100 6 -20 3 -23 -25 -23
-18 0 -30 4 -27 8 2 4 -2 37 -9 72 -20 92 -19 120 3 120 15 0 22 -15 35 -77z
m-390 32 c-1 -17 -7 -60 -14 -97 -11 -66 -11 -68 -41 -68 l-30 0 6 78 c9 96
13 110 34 115 35 10 47 2 45 -28z m131 13 c10 -39 7 -71 -10 -89 -15 -16 -13
-19 23 -38 22 -12 31 -20 21 -21 -10 0 -18 -7 -18 -15 0 -12 -15 -15 -71 -15
l-71 0 6 48 c4 26 11 71 17 100 l10 52 44 0 c36 0 44 -4 49 -22z m-229 -80
c-4 -51 -9 -95 -11 -97 -2 -2 -111 -8 -241 -12 l-238 -8 -33 37 c-78 89 -94
112 -80 116 21 7 455 47 587 55 l24 1 -8 -92z m1339 61 c310 -46 406 -73 406
-114 0 -16 -145 -25 -415 -25 l-220 0 -48 79 c-26 44 -47 82 -47 86 0 11 170
-3 324 -26z m-3836 -544 c87 -619 126 -955 147 -1248 l16 -218 -21 -17 c-15
-13 -39 -81 -90 -265 -37 -136 -76 -271 -85 -300 -17 -51 -35 -82 -35 -60 0
29 -86 741 -126 1043 -25 190 -48 396 -51 458 -6 110 -14 135 -36 113 -12 -12
4 -176 58 -561 19 -135 46 -344 59 -465 70 -606 72 -621 86 -640 6 -8 -89
-345 -171 -605 l-23 -75 -7 170 c-4 94 -15 621 -25 1173 l-17 1002 22 24 c20
22 22 37 31 252 5 126 9 234 9 239 -1 6 -3 127 -6 270 l-4 260 119 -160 118
-160 32 -230z m-398 516 c0 -6 -5 -13 -10 -16 -8 -5 -7 -11 0 -20 14 -16 5
-35 -16 -35 -8 0 -14 -4 -14 -10 0 -5 6 -10 14 -10 22 0 28 -17 14 -40 -11
-17 -11 -22 2 -30 13 -8 13 -12 1 -32 -10 -16 -10 -23 -2 -26 17 -6 13 -33 -6
-48 -17 -12 -17 -13 0 -19 9 -4 17 -13 17 -21 0 -7 -8 -18 -17 -24 -10 -6 -13
-13 -8 -16 37 -17 40 -25 18 -41 -26 -18 -30 -33 -9 -33 22 0 28 -17 14 -40
-13 -21 -43 -27 -53 -10 -8 12 -16 460 -9 471 7 12 64 11 64 0z m92 -226 c4
-126 5 -236 3 -242 -7 -20 -29 -15 -44 8 -10 18 -10 23 0 30 11 6 10 13 -1 34
-12 22 -12 28 -1 34 10 7 11 13 1 31 -10 18 -9 24 7 36 17 13 17 15 1 25 -22
13 -23 28 -2 44 15 10 15 13 0 27 -20 21 -21 38 -1 38 20 0 19 14 -1 31 -14
12 -14 14 3 27 17 13 17 14 1 26 -10 7 -18 18 -18 25 0 6 8 11 18 11 16 1 16
1 0 14 -25 19 -22 38 5 34 22 -3 22 -5 29 -233z m2196 161 c28 -36 52 -69 52
-75 0 -7 -43 -11 -122 -12 -68 -1 -297 -4 -511 -8 -213 -3 -387 -3 -387 0 0 7
236 51 560 103 151 25 286 47 300 49 14 2 32 5 40 6 8 0 39 -28 68 -63z m926
23 c-10 -16 -24 -9 -24 12 0 18 2 19 15 9 8 -7 12 -16 9 -21z m1856 -99 c-8
-5 -31 -9 -50 -9 -29 0 -31 2 -15 9 11 5 34 9 50 9 23 1 26 -2 15 -9z m-832
-7 c-32 -2 -84 -2 -115 0 -32 2 -6 3 57 3 63 0 89 -1 58 -3z m445 -40 c13 -27
47 -106 75 -178 28 -71 85 -218 127 -325 147 -372 306 -831 304 -879 0 -14 -8
-62 -18 -105 l-17 -79 -60 74 c-92 113 -321 429 -484 669 -81 118 -206 301
-278 405 -146 212 -260 388 -264 407 -2 10 58 14 290 18 180 3 293 9 295 15 1
5 -11 13 -28 16 l-30 7 32 1 c29 1 35 -4 56 -46z m-1473 -1 c147 -321 337
-960 429 -1439 17 -89 31 -171 31 -182 0 -24 -28 -27 -265 -36 -606 -23 -1655
-145 -2243 -261 -95 -19 -184 -37 -198 -40 -35 -9 -30 8 20 60 72 73 156 199
256 380 74 136 28 75 -79 -104 -56 -93 -105 -170 -108 -170 -3 0 9 24 25 54
27 47 130 273 179 391 9 22 23 47 30 56 7 9 11 23 8 32 -4 8 1 38 9 67 8 28
26 104 38 168 20 103 23 147 23 372 -1 285 -8 329 -81 494 -19 45 -38 86 -40
92 -7 15 251 22 1209 34 390 5 712 11 715 14 3 4 1 11 -6 18 -8 8 -148 8 -534
-1 -288 -6 -590 -10 -673 -9 -146 1 -144 2 70 8 121 4 418 11 660 15 242 4
449 11 460 15 29 11 51 1 65 -28z m630 28 c-14 -4 -56 -8 -95 -8 -38 0 -81 4
-95 8 -15 5 21 8 95 8 74 0 110 -3 95 -8z m-575 -23 c0 -9 83 -13 310 -17
l309 -5 88 -235 c126 -336 220 -630 336 -1045 45 -161 97 -383 91 -388 -8 -8
-349 38 -358 48 -5 6 -59 109 -120 230 -60 121 -135 265 -166 320 -70 125
-246 490 -335 695 -37 85 -91 208 -119 273 -46 107 -63 163 -43 143 4 -4 7
-13 7 -19z m-2057 -96 c16 -22 37 -60 46 -86 16 -41 17 -49 3 -78 -8 -18 -23
-60 -33 -95 -15 -56 -20 -63 -38 -58 -12 3 -24 6 -27 6 -4 0 6 51 22 113 28
111 35 157 22 144 -3 -4 -21 -60 -38 -125 -31 -111 -34 -117 -60 -120 -27 -4
-27 -3 -21 42 4 25 18 91 32 146 13 56 24 111 24 123 -1 44 -20 -9 -53 -150
l-34 -138 -36 -3 c-23 -2 -37 1 -37 8 0 6 11 57 26 112 14 55 24 113 22 127
-2 15 -17 -28 -37 -107 -20 -78 -39 -136 -47 -139 -8 -3 -25 -2 -39 1 -24 6
-25 10 -25 85 0 43 3 112 6 154 l7 77 143 0 144 0 28 -39z m-1579 -326 c149
-151 271 -280 271 -287 0 -7 -46 32 -102 87 -265 257 -468 460 -468 467 0 29
58 -24 299 -267z m919 83 c196 -252 693 -908 699 -923 21 -57 -188 -485 -326
-665 -77 -102 -68 -96 -172 -105 -98 -8 -129 -8 -135 -2 -2 2 -8 84 -13 183
-22 393 -90 1020 -166 1521 -15 106 -18 143 -11 143 3 0 58 -69 124 -152z
m751 30 c21 -81 29 -128 22 -133 -13 -7 -81 15 -81 27 0 24 34 148 40 148 4 0
12 -19 19 -42z m-1319 -28 c0 -5 -7 -10 -15 -10 -8 0 -15 5 -15 10 0 6 7 10
15 10 8 0 15 -4 15 -10z m118 -72 c-4 -43 -35 -52 -40 -11 -2 20 -9 29 -26 31
-29 4 -57 -17 -42 -32 18 -18 11 -27 -17 -24 -28 3 -40 25 -29 54 4 10 24 14
81 14 l76 0 -3 -32z m-104 -74 c34 -13 1 -40 -35 -29 -24 8 -24 22 -1 28 9 3
18 5 19 6 1 0 8 -2 17 -5z m101 -3 c9 -16 -35 -35 -48 -22 -9 9 -8 14 3 21 19
12 37 13 45 1z m-85 -87 c0 -11 -8 -14 -32 -12 -46 4 -49 28 -4 28 26 0 36 -4
36 -16z m88 4 c-3 -7 -15 -13 -28 -13 -13 0 -25 6 -27 13 -3 8 6 12 27 12 21
0 30 -4 28 -12z m2 -122 c5 -50 3 -60 -15 -72 -18 -13 -22 -12 -32 3 -7 9 -13
43 -13 76 0 58 0 58 28 55 25 -3 27 -7 32 -62z m-90 8 c0 -27 -4 -43 -10 -39
-5 3 -10 24 -10 46 0 21 5 39 10 39 6 0 10 -21 10 -46z m3798 -618 c184 -371
293 -573 492 -916 240 -412 273 -466 307 -508 54 -66 85 -215 118 -567 l14
-150 -57 -58 c-31 -32 -93 -91 -137 -130 -81 -73 -81 -72 -7 41 19 29 33 55
30 58 -3 3 -44 -52 -91 -123 -65 -97 -106 -146 -168 -202 -46 -41 -85 -69 -86
-64 -2 6 40 86 93 179 107 187 148 268 142 286 -3 7 -40 -58 -84 -143 -45 -84
-103 -190 -130 -234 l-50 -80 -65 2 c-35 2 -78 5 -95 8 l-31 5 -7 158 c-3 86
-13 231 -22 322 -9 90 -13 184 -9 208 4 28 3 42 -3 38 -12 -7 -14 4 -57 334
-19 151 -37 284 -40 295 -2 11 -14 97 -25 190 -47 388 -233 1297 -330 1605
-35 113 -20 99 48 -45 37 -77 149 -306 250 -509z m-3837 529 c1 -17 3 -22 6
-12 6 23 20 22 33 -3 9 -16 8 -20 -4 -20 -17 0 -19 -8 -34 -110 l-10 -65 4 80
4 80 -15 -40 c-20 -52 -40 -71 -31 -30 3 17 11 63 17 103 12 73 27 82 30 17z
m-90 -1 c16 -14 16 -19 2 -72 -9 -31 -20 -61 -24 -66 -9 -10 -31 66 -25 85 2
8 7 26 10 42 7 31 13 33 37 11z m149 -215 c0 -5 -4 -9 -10 -9 -5 0 -10 7 -10
16 0 8 5 12 10 9 6 -3 10 -10 10 -16z m-13 -76 c-4 -21 -2 -42 5 -50 7 -9 7
-17 -1 -27 -9 -11 -9 -19 1 -35 10 -17 10 -25 1 -41 -8 -12 -9 -21 -3 -25 17
-11 11 -35 -9 -35 -11 0 -22 3 -24 8 -5 9 11 211 17 229 11 27 18 11 13 -24z
m-127 -197 c-7 -7 -13 -7 -21 1 -7 7 -5 32 8 84 l18 74 3 -74 c2 -42 -2 -79
-8 -85z m-175 -500 c-58 -263 -146 -652 -194 -865 -167 -727 -264 -1156 -292
-1296 -16 -77 -36 -173 -45 -212 l-15 -73 -63 0 c-34 0 -65 2 -68 5 -3 4 5 47
19 98 13 51 62 241 109 422 183 710 299 1153 364 1390 37 136 116 436 200 760
59 230 84 306 88 275 1 -14 -45 -241 -103 -504z m299 448 c8 -3 12 -12 9 -20
-3 -8 1 -21 8 -30 11 -14 11 -18 -4 -29 -15 -11 -16 -14 -2 -25 19 -16 19 -30
0 -30 -20 0 -19 -19 1 -42 13 -14 14 -21 5 -32 -9 -11 -9 -19 1 -35 15 -25 8
-34 -24 -26 -24 6 -25 10 -31 113 -7 148 -2 171 37 156z m-139 -108 c-4 -42
-11 -73 -16 -70 -8 5 -7 32 7 123 10 62 16 23 9 -53z m35 -117 c0 -54 -11 -77
-23 -46 -7 20 5 117 14 111 5 -3 9 -32 9 -65z m-135 -259 c-65 -353 -95 -512
-101 -537 -2 -13 -11 -23 -19 -23 -18 0 -19 -12 -4 -27 7 -7 9 -28 5 -56 -5
-35 -12 -46 -29 -51 -20 -5 -21 -6 -4 -18 17 -13 17 -19 5 -93 l-14 -80 -34
-6 -35 -6 28 -11 c20 -9 27 -18 27 -39 0 -54 -11 -73 -39 -73 -47 0 -52 10
-35 70 8 30 17 69 20 85 3 17 27 125 54 240 27 116 83 368 125 560 86 397 89
407 93 350 1 -22 -18 -150 -43 -285z m5492 183 c61 -188 59 -180 39 -164 -9 8
-41 49 -71 91 l-54 76 14 40 c8 21 14 49 15 62 0 48 17 17 57 -105z m-5417 0
c-1 -16 -8 -39 -16 -53 l-15 -25 5 34 c3 18 6 42 6 52 0 11 5 19 10 19 6 0 10
-12 10 -27z m193 -21 c5 -2 0 -10 -10 -17 -17 -13 -17 -14 0 -33 17 -19 17
-20 -5 -25 l-22 -6 22 -24 23 -24 -23 -6 -22 -6 22 -24 c27 -29 28 -37 2 -37
-25 0 -25 -12 0 -35 25 -23 18 -33 -20 -27 l-30 4 0 133 c0 147 6 159 63 127z
m-137 -119 c-3 -65 -10 -121 -14 -125 -5 -5 -17 1 -27 12 -17 18 -17 27 -5
112 12 91 22 118 43 118 7 0 8 -39 3 -117z m3673 30 c5 -21 14 -62 21 -91 7
-28 16 -54 20 -57 20 -12 20 19 0 81 -29 97 -28 104 20 104 48 0 52 -8 73
-130 13 -73 13 -82 -2 -89 -9 -5 -73 -11 -142 -13 l-126 -5 -12 60 c-9 45 -9
62 -1 67 14 9 9 82 -6 87 -10 3 -34 -17 -60 -52 -13 -19 -14 -17 -12 20 3 37
5 40 38 46 19 4 67 7 107 8 l72 1 10 -37z m641 17 c52 -6 119 -15 148 -22 51
-11 52 -12 67 -61 26 -87 29 -84 -92 -91 -60 -4 -121 -9 -138 -11 -29 -4 -32
-1 -77 85 -27 49 -48 94 -48 99 0 13 19 13 140 1z m-972 -22 c-8 -24 -176 -37
-223 -19 -22 9 37 19 150 24 33 2 64 4 68 5 5 1 7 -4 5 -10z m-338 -8 c0 -5
14 -10 30 -10 34 0 34 0 18 -36 -11 -23 -10 -28 7 -40 19 -14 18 -15 -7 -68
l-26 -53 -79 -6 c-43 -4 -287 -12 -542 -19 l-463 -12 -43 50 c-48 55 -69 54
-36 -1 11 -20 21 -38 21 -40 0 -8 -113 -15 -375 -25 -148 -5 -319 -13 -380
-16 -60 -4 -107 -3 -104 0 13 13 114 36 294 66 99 17 214 37 255 45 91 18 786
112 925 125 55 5 163 16 240 24 139 15 200 21 243 24 12 1 22 -2 22 -8z m400
-30 c0 -5 -9 -10 -21 -10 -11 0 -17 5 -14 10 3 6 13 10 21 10 8 0 14 -4 14
-10z m-3506 -245 c-24 -212 -64 -529 -69 -543 -3 -8 -16 -12 -32 -10 -26 3
-28 6 -25 48 1 25 12 86 22 135 11 50 21 97 21 105 2 30 70 446 76 460 16 41
20 -77 7 -195z m3306 170 c0 -14 -6 -25 -12 -25 -23 0 16 -20 40 -20 25 0 29
-12 8 -29 -10 -9 -16 -8 -26 4 -16 20 -44 20 -36 0 6 -17 4 -18 -18 -9 -20 8
-20 25 -2 69 18 41 46 47 46 10z m209 -33 c15 -49 15 -48 -20 -57 -25 -6 -26
-4 -32 40 -4 26 -4 51 -1 57 13 21 40 1 53 -40z m69 36 c6 -7 13 -30 17 -50 7
-36 6 -38 -19 -38 -20 0 -27 6 -32 28 -3 15 -8 33 -10 41 -3 8 1 18 8 23 18
11 24 10 36 -4z m-358 -33 c0 -34 -10 -55 -26 -55 -16 0 -19 26 -4 35 6 3 10
17 10 31 0 14 4 22 10 19 6 -3 10 -17 10 -30z m-2461 -256 c1 -333 -5 -402
-100 -1029 -5 -36 -15 -83 -21 -105 l-12 -40 -12 76 c-7 42 -24 181 -38 310
-29 261 -32 279 -46 279 -13 0 -13 -9 10 -210 11 -96 20 -179 20 -183 0 -5
-12 -7 -27 -5 -26 3 -28 7 -39 81 -12 75 -19 96 -28 86 -3 -2 0 -52 6 -111 6
-58 8 -114 5 -122 -10 -24 -62 -20 -79 6 -13 19 -13 28 -1 68 8 25 41 135 73
245 32 110 90 306 129 435 38 129 87 293 107 364 27 93 40 124 45 110 4 -10 8
-125 8 -255z m-718 184 c-10 -17 -10 -16 -11 3 0 23 13 41 18 25 2 -6 -1 -18
-7 -28z m4564 17 c-74 -12 -215 -12 -215 0 0 6 50 9 133 9 103 -1 121 -3 82
-9z m-4367 -17 c2 -7 -3 -13 -12 -13 -21 0 -20 -9 1 -33 17 -18 17 -19 0 -31
-16 -12 -16 -14 3 -31 25 -23 25 -31 0 -38 -11 -3 -20 -10 -20 -15 0 -6 9 -14
20 -17 29 -9 25 -35 -5 -35 -14 0 -25 -4 -25 -8 0 -5 11 -14 25 -20 14 -6 25
-16 25 -22 0 -12 -12 -13 -43 -1 -24 9 -25 14 -32 134 -4 69 -4 130 0 137 9
14 57 9 63 -7z m3672 -12 c-8 -5 -116 -11 -240 -15 -124 -3 -265 -8 -315 -11
-73 -4 -84 -3 -56 6 57 17 641 37 611 20z m-3836 -73 c-9 -102 -26 -124 -21
-27 3 69 10 99 23 99 2 0 1 -33 -2 -72z m4594 55 c26 -51 157 -662 150 -700
-2 -11 -16 7 -37 47 -19 36 -46 83 -61 105 -15 22 -73 123 -130 225 -57 102
-114 203 -128 224 -13 22 -31 54 -38 72 -13 32 -13 33 14 37 15 2 71 5 124 6
83 1 99 -1 106 -16z m-1500 -10 c-10 -2 -28 -2 -40 0 -13 2 -5 4 17 4 22 1 32
-1 23 -4z m790 -150 c12 -76 29 -190 37 -253 7 -63 23 -173 34 -245 46 -296
111 -901 118 -1106 l6 -176 -52 -65 -52 -65 -217 -7 c-501 -16 -880 -50 -1457
-132 -366 -52 -901 -191 -1283 -335 -58 -21 -109 -39 -114 -39 -5 0 -4 10 2
23 7 13 -2 7 -22 -15 -29 -33 -113 -79 -187 -103 -21 -6 -19 -1 17 46 89 119
277 532 359 789 44 138 106 372 128 485 23 118 32 473 15 600 -27 202 -86 424
-145 552 l-43 92 51 5 c108 10 1607 62 2057 72 151 3 277 7 279 10 2 2 104 4
226 4 l221 0 22 -137z m-2878 -5 c69 -122 138 -381 166 -631 14 -116 15 -169
6 -320 -10 -177 -50 -419 -72 -441 -9 -9 -136 7 -148 19 -5 5 7 45 46 153 2 6
0 12 -6 12 -5 0 -24 -36 -43 -80 -29 -71 -36 -80 -58 -80 -57 0 -58 11 -8 122
66 149 100 241 86 236 -7 -2 -38 -67 -69 -144 -80 -198 -84 -204 -125 -204
-18 0 -36 4 -39 8 -2 4 18 59 45 122 66 153 156 395 164 445 12 68 -9 27 -50
-95 -21 -63 -72 -196 -115 -295 -75 -176 -77 -180 -108 -183 -18 -2 -32 -1
-32 2 0 4 18 54 39 114 134 365 205 584 198 605 -2 7 -15 -22 -27 -63 -39
-128 -230 -644 -243 -657 -7 -6 -25 -15 -41 -19 -27 -6 -29 -5 -21 17 24 77
83 388 115 615 41 283 50 376 54 559 2 105 7 198 11 207 8 20 32 25 152 27
l93 1 30 -52z m-983 -60 c-2 -18 -4 -4 -4 32 0 36 2 50 4 33 2 -18 2 -48 0
-65z m-52 2 c11 -13 10 -23 -11 -72 -34 -81 -40 -153 -19 -220 15 -50 15 -60
1 -119 -8 -37 -15 -109 -15 -169 0 -58 -16 -289 -35 -515 -19 -225 -45 -522
-56 -660 -12 -137 -23 -256 -25 -262 -3 -9 -25 -13 -61 -13 l-57 0 7 73 c4 39
18 160 31 267 13 107 42 375 65 595 22 220 56 522 75 670 19 149 39 308 45
355 6 47 13 96 17 110 l5 25 10 -25 c5 -13 15 -31 23 -40z m59 -82 c9 -35 7
-258 -2 -258 -5 0 -16 8 -24 18 -13 14 -14 32 -8 107 5 50 9 105 9 123 1 37
16 43 25 10z m136 13 c0 -5 -6 -11 -12 -14 -10 -3 -8 -10 5 -25 18 -19 18 -21
0 -30 -17 -10 -17 -11 0 -29 25 -28 21 -43 -10 -43 l-28 -1 28 -24 c33 -29 34
-41 5 -49 l-23 -6 24 -19 c32 -25 24 -40 -16 -29 l-33 9 0 134 0 135 30 0 c17
0 30 -4 30 -9z m-125 -435 c5 -104 4 -138 -7 -156 -10 -18 -10 -24 0 -27 9 -3
12 -43 12 -151 l-1 -147 -28 31 c-30 33 -51 105 -51 172 0 34 5 47 37 99 10
16 7 29 -13 74 -24 51 -25 59 -16 132 10 77 23 107 47 107 9 0 15 -37 20 -134z
m-202 104 c5 -4 5 -32 0 -61 -8 -51 -10 -54 -41 -57 -30 -3 -32 -2 -32 30 0
18 3 50 7 71 5 35 8 38 32 32 14 -4 30 -10 34 -15z m312 -19 c-3 -10 1 -24 10
-31 19 -16 19 -30 0 -30 -8 0 -15 -4 -15 -9 0 -5 7 -14 15 -21 8 -7 15 -16 15
-21 0 -5 -7 -9 -15 -9 -20 0 -19 -20 3 -36 16 -12 16 -14 -3 -28 -20 -16 -20
-16 -1 -31 25 -19 13 -31 -18 -17 -27 12 -36 46 -36 141 0 86 7 111 32 111 14
0 18 -5 13 -19z m-326 -137 c2 -2 -1 -29 -5 -61 -9 -56 -10 -58 -47 -68 -42
-12 -39 -25 6 -25 l29 0 -6 -57 c-13 -110 -14 -113 -49 -113 -56 0 -60 8 -43
91 8 41 20 110 26 154 7 44 14 83 16 87 4 7 63 0 73 -8z m-141 -94 c14 0 16
-38 3 -59 -6 -9 -18 -11 -40 -6 -39 8 -44 17 -31 50 8 22 15 26 33 21 12 -3
28 -6 35 -6z m292 -10 c0 -5 -4 -10 -10 -10 -5 0 -10 5 -10 10 0 6 5 10 10 10
6 0 10 -4 10 -10z m198 -48 c2 -7 -4 -12 -14 -12 -16 0 -16 -1 1 -20 18 -20
18 -21 -1 -35 -19 -14 -18 -15 4 -33 25 -19 20 -32 -12 -32 -21 -1 -21 -1 2
-19 25 -22 29 -41 7 -41 -22 0 -18 -15 8 -33 28 -19 13 -38 -24 -30 -25 5 -27
9 -34 78 -6 66 1 178 12 197 5 10 46 -6 51 -20z m-504 -40 c9 -5 2 -95 -9
-112 -4 -6 -25 -7 -48 -4 -39 5 -41 4 -23 -10 11 -9 28 -16 37 -16 24 0 30
-12 23 -48 -7 -36 -20 -43 -69 -35 -26 4 -34 10 -31 22 2 9 14 62 27 119 l22
103 31 -7 c17 -3 35 -9 40 -12z m7021 -27 c289 -39 812 -142 1111 -220 135
-35 414 -134 414 -146 0 -4 -26 -17 -57 -29 -85 -34 -629 -263 -763 -322 -63
-28 -129 -57 -147 -64 -31 -14 -33 -13 -91 39 -106 93 -702 738 -702 759 0 10
66 5 235 -17z m-6200 -119 c10 -52 3 -81 -21 -84 -24 -3 -34 19 -34 81 0 33 3
37 25 37 20 0 25 -6 30 -34z m-712 -16 c7 -6 -7 -127 -15 -136 -2 -2 -23 2
-47 8 l-44 11 7 59 c3 33 9 64 12 69 6 10 73 2 87 -11z m185 -128 c-18 -37
-31 -81 -35 -124 -5 -59 -3 -71 21 -113 l26 -48 -21 -66 c-30 -97 -28 -178 6
-237 l27 -47 -15 -71 c-30 -134 -30 -194 -1 -270 6 -15 0 -17 -57 -14 l-63 3
2 55 c2 49 46 601 72 902 6 64 10 125 10 135 1 14 7 11 29 -15 l28 -32 -29
-58z m357 -162 c13 -213 20 -294 37 -436 1 -6 -21 -51 -48 -99 -43 -76 -50
-84 -55 -64 -4 13 -7 177 -8 363 -1 317 0 345 20 415 23 81 31 101 35 86 2 -6
10 -125 19 -265z m93 222 c4 -36 -13 -48 -53 -38 -21 5 -25 12 -25 42 0 35 1
35 38 32 34 -3 37 -6 40 -36z m-804 -22 c27 0 30 -8 20 -47 -12 -44 -107 -24
-97 19 10 48 12 49 32 38 11 -5 31 -10 45 -10z m436 -346 c0 -184 -3 -334 -7
-334 -5 1 -21 27 -36 58 -35 70 -37 146 -7 243 l20 66 -26 47 c-24 42 -26 54
-19 109 9 85 44 165 66 151 5 -3 9 -156 9 -340z m464 315 c12 -63 7 -97 -15
-104 -28 -9 -31 -4 -37 54 -5 61 1 81 26 81 14 0 21 -9 26 -31z m8056 -14
c-90 -48 -154 -71 -115 -42 23 16 175 86 190 86 6 0 -28 -20 -75 -44z m-8403
0 c27 -24 28 -25 9 -40 -16 -12 -17 -18 -8 -27 17 -17 15 -38 -3 -38 -21 0
-19 -17 5 -30 27 -14 25 -36 -2 -44 l-23 -6 25 -21 c24 -21 24 -21 5 -36 -19
-13 -19 -15 -2 -27 26 -20 20 -25 -17 -14 l-34 11 -7 133 c-10 173 -4 189 52
139z m263 -34 c0 -32 -4 -40 -22 -45 -48 -12 -56 -8 -60 35 -2 22 -2 42 1 45
2 2 22 4 43 4 38 0 38 0 38 -39z m-667 0 c5 -5 5 -36 1 -70 l-7 -62 -46 7
c-25 4 -50 9 -55 11 -7 5 0 101 11 128 3 9 15 10 46 3 23 -5 46 -13 50 -17z
m-170 -18 c20 -4 27 -11 27 -28 0 -40 -11 -55 -39 -55 -68 0 -83 18 -61 75 8
20 15 25 28 20 9 -3 29 -9 45 -12z m5727 -9 c0 -11 -62 -109 -74 -116 -16 -11
-76 -10 -76 1 0 9 131 120 143 121 4 0 7 -3 7 -6z m3050 -24 c0 -11 -33 -30
-52 -30 -7 1 -3 9 11 20 25 22 41 26 41 10z m-7940 -40 c25 -25 26 -50 3 -51
-63 -4 -83 8 -83 49 0 18 6 22 30 22 17 0 39 -9 50 -20z m103 -17 c7 -36 0
-50 -28 -55 -37 -7 -51 52 -17 71 28 17 39 13 45 -16z m7753 20 c18 -7 -96
-64 -244 -124 -84 -34 -82 -33 -82 -16 0 11 93 56 307 146 1 1 9 -2 19 -6z
m68 -41 c-17 -15 -116 -99 -220 -187 -104 -88 -331 -281 -504 -430 -330 -283
-488 -415 -497 -415 -7 0 46 57 301 325 476 500 533 556 584 575 26 10 112 50
192 89 156 76 194 87 144 43z m-8801 4 c26 -6 48 -14 49 -17 4 -22 -17 -112
-27 -115 -7 -3 -31 0 -54 6 -46 12 -49 21 -30 96 6 24 12 44 13 44 0 -1 23 -7
49 -14z m159 -22 l40 -7 -7 -81 c-4 -45 -9 -84 -12 -88 -6 -11 -41 -10 -86 3
-28 8 -37 14 -33 27 2 9 10 50 16 90 10 58 15 72 27 68 8 -3 33 -9 55 -12z
m709 -24 c29 0 30 -1 27 -42 -3 -43 -3 -43 -43 -43 l-40 0 -3 49 c-3 42 -1 48
13 42 9 -3 30 -6 46 -6z m5010 -295 c108 -154 231 -328 273 -387 41 -60 72
-108 67 -108 -4 0 -47 14 -97 30 -149 51 -360 109 -542 150 -95 21 -176 41
-179 44 -7 7 14 39 72 110 25 31 45 61 45 67 0 19 -26 -8 -91 -96 l-61 -82
-111 20 c-62 10 -114 21 -116 23 -3 2 11 26 29 52 64 88 167 247 174 267 7 20
183 174 214 187 9 4 42 6 72 5 l54 -2 197 -280z m61 260 c75 -8 144 -18 154
-22 16 -6 16 -20 11 -162 -8 -187 -17 -281 -28 -281 -10 0 -120 148 -216 290
-39 58 -85 123 -102 146 -17 23 -29 43 -26 46 5 5 21 3 207 -17z m-4972 11 c0
-15 -24 -66 -31 -66 -5 0 -9 16 -9 35 0 28 4 35 20 35 11 0 20 -2 20 -4z
m4515 -16 c-40 -39 -460 -389 -463 -385 -6 5 18 45 61 103 21 30 37 56 34 58
-5 5 -19 -14 -91 -120 -14 -21 -23 -43 -20 -48 12 -19 -49 -57 -92 -58 -22 0
-43 3 -47 6 -5 5 174 184 403 402 l65 62 85 0 c84 0 84 0 65 -20z m940 -61
c219 -37 660 -122 795 -152 149 -34 362 -99 353 -107 -4 -4 -42 -20 -83 -37
-41 -17 -309 -128 -595 -248 -286 -120 -527 -219 -536 -222 -11 -3 -46 37
-116 129 -132 176 -138 185 -125 201 6 7 16 116 23 245 l13 233 51 -6 c27 -4
127 -20 220 -36z m-5289 -20 c-8 -50 15 -51 25 0 4 17 9 35 13 38 3 4 48 1 99
-5 242 -30 267 -35 267 -58 0 -41 -89 -318 -151 -469 -69 -166 -217 -480 -224
-473 -4 3 -21 142 -46 363 -5 44 -13 107 -19 140 -5 33 -19 135 -30 227 -27
220 -15 274 59 277 10 1 12 -9 7 -40z m7197 26 c2 -15 -277 -140 -718 -323
-93 -39 -221 -93 -284 -121 -62 -28 -115 -51 -118 -51 -2 0 -3 9 -1 21 2 16
42 37 202 105 109 46 205 84 213 84 7 0 37 13 66 29 43 24 259 118 572 248 53
22 66 24 68 8z m-8310 -22 c4 -2 5 -15 2 -29 -17 -82 -13 -77 -53 -69 -72 13
-84 32 -62 90 10 26 13 27 58 20 26 -4 50 -9 55 -12z m598 6 c20 -10 20 -11 2
-25 -17 -13 -17 -15 0 -25 23 -14 22 -29 -3 -29 -27 0 -25 -16 2 -31 l22 -12
-24 -9 -25 -9 28 -23 c32 -26 34 -36 7 -36 -11 0 -20 -4 -20 -10 0 -5 9 -14
20 -20 11 -6 20 -15 20 -20 0 -6 -9 -10 -20 -10 -24 0 -25 -8 -3 -32 15 -17
15 -18 -14 -18 -29 0 -30 2 -37 53 -3 28 -6 100 -6 160 0 115 4 122 51 96z
m292 -13 c4 -6 6 -24 5 -41 -3 -29 -5 -30 -48 -30 l-45 0 -3 47 -3 46 43 -5
c24 -3 46 -11 51 -17z m137 14 c0 -8 -35 -20 -62 -20 -10 0 -15 5 -12 13 5 14
74 20 74 7z m7122 -217 c-287 -300 -719 -733 -731 -733 -12 0 -81 131 -80 152
0 7 75 78 166 158 91 80 204 182 252 226 69 65 108 93 197 137 107 54 110 56
119 97 10 40 12 42 115 90 58 27 111 49 119 50 7 0 -63 -80 -157 -177z m-7147
117 c8 -59 -4 -80 -44 -80 -34 0 -55 47 -40 88 12 31 26 42 56 42 18 0 22 -8
28 -50z m-896 28 c55 -12 56 -14 44 -82 l-6 -38 -53 5 c-73 8 -77 11 -69 66
10 69 7 67 84 49z m-131 -87 c2 -13 1 -34 -2 -47 -6 -22 -11 -24 -67 -24 l-62
0 7 52 c4 28 9 55 11 59 3 3 28 1 57 -6 43 -9 54 -16 56 -34z m885 14 c-9 -19
-21 -35 -26 -35 -5 0 -7 -6 -4 -14 3 -8 -1 -20 -9 -26 -12 -11 -14 -3 -14 49
l0 61 35 0 35 0 -17 -35z m4404 -17 c-14 -24 -56 -88 -94 -143 l-68 -100 -45
2 c-60 3 -92 12 -88 24 4 12 312 268 317 263 2 -1 -8 -22 -22 -46z m2743 -37
c0 -13 -24 -29 -93 -59 -137 -60 -128 -58 -115 -25 9 23 27 35 97 65 99 43
111 45 111 19z m-7870 -58 c0 -57 -15 -73 -65 -73 -65 0 -75 7 -75 50 0 21 4
50 9 63 l9 24 61 -15 c60 -14 61 -15 61 -49z m770 18 c0 -41 -11 -51 -56 -51
-27 0 -28 3 -13 33 35 66 69 75 69 18z m110 -1 c0 -42 -18 -60 -59 -60 -17 0
-21 6 -21 34 0 19 -3 41 -6 50 -5 13 2 16 40 16 l46 0 0 -40z m-1060 -47 c0
-16 -5 -45 -11 -67 l-11 -38 -48 4 c-71 7 -79 17 -67 78 l10 50 63 0 c63 0 64
0 64 -27z m7793 -18 c18 -13 16 -15 -30 -38 -105 -54 -485 -208 -499 -203 -34
13 -9 36 84 77 149 65 416 178 422 178 3 0 13 -6 23 -14z m-6838 -60 l0 -50
-45 0 c-43 0 -45 2 -48 30 -2 17 -8 35 -13 41 -15 18 7 29 58 29 l48 0 0 -50z
m119 -2 c7 -52 -1 -63 -45 -63 -30 0 -39 15 -39 65 0 31 3 34 33 38 17 2 35 5
38 5 4 1 9 -19 13 -45z m-917 12 c11 -4 10 -52 -3 -114 -5 -22 -9 -23 -48 -18
-23 3 -55 11 -70 17 -27 10 -28 12 -21 63 4 28 9 55 11 59 4 6 105 1 131 -7z
m371 -205 c5 -107 12 -202 16 -210 4 -10 -27 -61 -89 -145 -52 -71 -95 -135
-95 -142 0 -20 28 -15 40 7 9 17 101 142 121 164 5 6 9 -65 9 -160 l0 -169
-125 0 c-104 0 -125 2 -125 15 0 31 39 473 42 475 2 2 41 7 87 12 99 9 117 24
83 67 -29 38 -36 102 -22 197 15 104 19 115 36 97 8 -9 15 -74 22 -208z m130
188 c17 -15 15 -35 -5 -47 -17 -9 -17 -10 0 -28 22 -25 22 -33 -4 -33 -26 0
-16 -18 19 -33 l27 -11 -27 -4 c-32 -4 -36 -16 -11 -30 14 -9 12 -17 -20 -73
-20 -35 -46 -75 -57 -89 l-20 -25 0 25 c0 14 9 43 20 65 17 33 20 59 20 173
l0 133 23 -7 c12 -3 28 -11 35 -16z m182 -179 c20 -360 41 -656 50 -713 8 -50
7 -63 -7 -78 -22 -24 -52 -23 -87 5 l-28 23 -9 204 c-4 113 -8 270 -9 350 0
80 -5 164 -9 187 -8 39 -5 49 37 123 25 44 47 78 49 76 2 -2 8 -82 13 -177z
m6929 147 c-8 -8 -101 -91 -208 -185 -147 -129 -197 -168 -207 -160 -14 11
-70 147 -63 153 2 2 83 37 179 79 96 41 204 89 240 105 66 30 85 32 59 8z
m-3026 7 l38 -6 -42 -43 -43 -44 -98 0 c-110 0 -111 1 -49 68 28 30 35 32 93
32 35 0 80 -3 101 -7z m-4822 -14 l52 -11 -6 -49 c-3 -27 -9 -54 -12 -59 -8
-13 -65 -13 -104 1 -26 9 -32 16 -27 33 2 11 8 38 11 59 8 41 11 42 86 26z
m4985 -10 c6 -11 -27 -42 -69 -65 -19 -10 -39 -13 -60 -8 l-31 6 45 43 c38 36
50 41 77 37 18 -2 35 -8 38 -13z m365 -54 c145 -24 305 -53 354 -64 128 -29
342 -88 363 -101 13 -9 14 -11 1 -7 -40 12 -382 77 -454 86 -44 6 -208 22
-365 37 -157 14 -287 28 -290 31 -12 12 66 63 96 63 17 0 150 -20 295 -45z
m-4298 -8 c8 -31 6 -42 -6 -55 -22 -22 -96 -1 -99 28 -4 49 -2 54 22 61 53 15
74 7 83 -34z m120 -24 c3 -30 1 -43 -9 -47 -22 -8 -74 5 -74 19 0 7 -3 26 -6
43 -6 30 -5 31 32 34 22 2 42 1 45 -2 4 -3 9 -24 12 -47z m6103 -19 c19 -32
24 -48 16 -56 -7 -7 -17 2 -31 30 -20 38 -27 72 -16 72 2 0 16 -21 31 -46z
m-7091 12 c41 -12 55 -36 36 -64 -10 -17 -128 -19 -143 -4 -6 6 -7 27 -3 52 8
46 7 46 110 16z m7055 -81 c0 -14 -68 -46 -403 -189 -338 -145 -330 -142 -339
-93 -2 15 44 38 267 133 333 142 405 175 405 185 0 5 -2 9 -3 9 -12 0 -130
-46 -232 -90 -66 -28 -309 -130 -540 -227 -397 -165 -505 -216 -490 -231 10
-10 97 -9 140 2 22 6 45 10 50 11 6 0 25 10 42 23 17 12 40 22 51 22 28 0 80
-46 67 -58 -5 -5 -95 -17 -200 -27 -104 -9 -194 -21 -200 -26 -15 -15 -25 -10
-25 10 0 22 -55 40 -72 23 -13 -13 -2 -32 18 -32 15 0 19 -16 6 -24 -10 -6
-87 41 -87 55 0 11 45 31 460 201 149 60 380 156 515 213 135 57 301 126 370
154 l125 51 38 -41 c20 -23 37 -47 37 -54z m-2392 53 c-2 -5 -50 -47 -108 -93
-96 -78 -105 -83 -112 -64 -10 27 -10 27 81 107 69 61 82 68 110 64 17 -2 30
-9 29 -14z m-640 0 c16 -16 15 -68 -1 -68 -16 0 -50 57 -42 70 8 14 28 13 43
-2z m182 7 c0 -4 -48 -18 -107 -30 -29 -6 -33 -4 -33 14 0 19 6 21 70 21 39 0
70 -2 70 -5z m90 -1 c0 -13 -21 -44 -30 -44 -6 0 -10 11 -10 25 0 18 5 25 20
25 11 0 20 -3 20 -6z m97 -60 l12 -59 -49 -50 c-58 -58 -68 -54 -77 26 -5 52
-4 55 37 102 23 26 48 46 54 44 6 -2 16 -30 23 -63z m98 16 c-27 -27 -52 -47
-56 -42 -3 4 -9 26 -13 50 l-6 42 62 0 62 0 -49 -50z m-604 23 c0 -10 4 -44 8
-75 4 -33 3 -62 -2 -67 -6 -6 -4 -16 6 -25 14 -14 35 -132 25 -142 -3 -2 -30
26 -61 63 l-57 67 0 92 c0 99 0 100 58 103 14 1 22 -5 23 -16z m938 -15 c5
-18 31 -109 56 -202 47 -170 61 -206 81 -206 6 0 -14 87 -48 203 -63 220 -67
242 -42 233 9 -3 38 -6 64 -6 41 0 51 -4 62 -22 6 -13 49 -133 94 -268 71
-208 81 -247 69 -256 -23 -18 -18 -23 28 -26 l42 -4 -38 -8 c-36 -8 -41 -6
-75 27 -44 41 -72 57 -104 57 -13 0 -29 9 -36 20 -10 17 -15 18 -39 8 -35 -16
-44 -28 -39 -51 10 -43 -30 -114 -53 -91 -3 3 -6 51 -6 107 0 56 -4 108 -8
115 -11 16 -37 15 -61 -3 -17 -13 -17 -16 -3 -57 9 -24 19 -64 22 -89 l6 -47
-82 -22 c-72 -19 -87 -20 -121 -9 -33 11 -44 10 -74 -4 -19 -9 -40 -17 -47
-17 -7 0 -35 33 -63 73 -41 58 -54 87 -67 150 -10 43 -17 86 -17 97 0 17 81
90 100 90 4 0 21 -71 39 -157 30 -146 42 -185 56 -171 3 3 -11 80 -30 172 -19
91 -35 172 -35 179 0 7 41 47 91 88 166 134 157 129 215 129 50 0 53 -1 63
-32z m-4985 -21 c-3 -71 0 -67 -58 -67 -30 0 -61 3 -70 6 -18 7 -21 40 -7 77
9 24 10 24 73 13 50 -9 63 -15 62 -29z m3889 19 c15 -22 14 -24 -9 -35 -20 -9
-24 -16 -18 -34 4 -12 7 -30 6 -40 0 -10 8 -23 19 -30 25 -15 24 -25 -3 -47
l-23 -18 28 -13 c29 -13 34 -24 17 -34 -15 -9 -34 8 -70 63 -26 40 -30 54 -30
117 0 42 5 76 12 83 20 20 55 14 71 -12z m237 -37 c0 -6 -10 -9 -22 -7 -18 2
-24 10 -26 38 l-2 35 25 -28 c14 -15 25 -33 25 -38z m-3123 41 c27 0 32 -4 38
-31 9 -39 -4 -49 -67 -49 l-48 0 0 46 c0 43 2 46 23 40 12 -3 36 -6 54 -6z
m2749 -15 c3 -14 3 -32 0 -42 -5 -13 -11 -10 -31 17 -31 42 -31 50 0 50 18 0
26 -7 31 -25z m636 -40 c-12 -26 -54 -39 -113 -33 -30 3 -34 7 -37 35 -3 30
-1 32 35 39 21 3 54 9 73 13 42 9 60 -14 42 -54z m1134 30 c289 -34 630 -102
704 -140 34 -18 40 -18 40 -5 0 6 -11 16 -25 22 -14 6 -25 15 -25 20 0 11 131
-39 150 -57 9 -10 11 -18 5 -24 -6 -5 -109 -50 -229 -99 -199 -81 -221 -88
-244 -76 -14 7 -39 10 -58 7 -27 -4 -34 -2 -34 11 0 12 -9 16 -37 16 -55 0
-88 -20 -89 -52 -1 -15 -7 -34 -13 -42 -11 -13 -16 -13 -41 6 -33 24 -90 21
-120 -7 -14 -13 -23 -14 -38 -6 -36 19 -76 -15 -52 -44 8 -9 8 -15 0 -20 -15
-10 -28 2 -52 48 -21 41 -154 409 -165 456 -7 28 -41 29 323 -14z m-1936 -3
c0 -15 -11 -107 -25 -202 -13 -96 -27 -194 -31 -218 -4 -35 -9 -42 -21 -37 -9
3 -43 8 -75 12 -40 4 -58 10 -58 20 0 26 51 358 61 395 10 39 17 43 84 51 65
8 65 8 65 -21z m70 15 c0 -6 14 -25 31 -41 17 -17 43 -47 57 -68 24 -37 25
-42 14 -100 -7 -40 -8 -67 -2 -79 6 -10 10 -67 10 -128 l0 -111 -85 -1 c-47
-1 -91 -2 -97 -3 -20 -2 -21 56 -4 163 9 53 23 153 31 223 8 69 18 134 21 142
7 19 24 21 24 3z m-2515 -7 c21 -8 26 -16 23 -38 -2 -22 -8 -27 -33 -30 -25
-2 -33 3 -47 32 -9 19 -14 37 -11 40 9 9 38 7 68 -4z m2265 -10 c0 -17 -38
-30 -89 -30 -52 0 -78 16 -39 24 13 3 32 7 43 9 39 9 85 7 85 -3z m-3257 -17
c37 -5 47 -10 47 -24 0 -17 -9 -19 -80 -19 l-80 0 0 31 c0 30 1 31 33 25 17
-4 53 -10 80 -13z m3065 -15 c-4 -28 -37 -35 -91 -18 -49 14 -38 28 28 33 28
2 54 4 58 5 5 1 7 -8 5 -20z m4178 -162 c46 -95 84 -178 84 -182 0 -9 -140
250 -172 319 -10 22 -13 37 -7 37 6 0 48 -78 95 -174z m-6660 127 c-10 -10
-19 5 -10 18 6 11 8 11 12 0 2 -7 1 -15 -2 -18z m2291 15 c-2 -7 -33 -100 -68
-205 l-64 -193 -77 0 c-45 0 -78 4 -78 10 0 12 93 272 119 334 17 39 24 46 58
51 21 4 43 8 48 10 27 9 67 4 62 -7z m1153 -18 l21 -30 -49 0 c-36 0 -52 4
-56 16 -13 34 -6 44 28 44 27 0 39 -7 56 -30z m3108 -51 c24 -40 41 -77 39
-83 -3 -8 -94 -17 -273 -29 -147 -9 -269 -15 -271 -13 -5 4 430 195 447 196 8
0 34 -32 58 -71z m-3898 41 c0 -11 -6 -20 -13 -20 -7 0 -18 -9 -25 -20 -21
-34 -112 -25 -112 11 0 26 47 48 103 49 40 0 47 -3 47 -20z m-2334 -26 c8 -41
0 -52 -41 -55 -69 -5 -75 -2 -75 40 0 43 7 48 72 50 35 1 37 -1 44 -35z m1774
28 c0 -8 -109 -309 -130 -358 -7 -18 -20 -22 -92 -28 -509 -41 -678 -60 -718
-81 -41 -21 -67 -63 -88 -141 -16 -64 -20 -69 -42 -66 -14 2 -29 7 -33 11 -10
10 45 167 84 241 16 30 29 63 29 72 0 9 12 44 26 77 l26 60 92 30 c106 35 261
74 541 135 110 25 209 46 220 49 34 8 85 7 85 -1z m364 -12 c5 -5 6 -20 2 -34
-6 -24 -10 -26 -64 -26 -75 0 -97 15 -82 54 10 28 11 28 73 22 34 -4 66 -11
71 -16z m-3566 -5 c5 -5 -103 -424 -112 -433 -4 -3 -59 -1 -124 6 -64 7 -414
41 -777 77 -1066 104 -1447 143 -1453 149 -11 12 6 16 114 31 60 8 177 26 259
40 475 78 839 116 1335 139 100 5 752 -3 758 -9z m1552 -30 c0 -36 -13 -46
-53 -38 -18 4 -29 15 -36 36 -6 16 -11 31 -11 33 0 4 84 10 93 6 4 -2 7 -18 7
-37z m3160 38 c0 -5 -11 -21 -25 -38 l-25 -30 -20 25 c-31 39 -26 50 25 50 25
0 45 -3 45 -7z m72 -18 c6 -28 -5 -39 -44 -49 -35 -8 -35 -3 -2 40 31 41 40
42 46 9z m-4609 8 c2 -5 -1 -33 -8 -63 -6 -30 -24 -116 -39 -190 -21 -102 -33
-139 -48 -151 -14 -11 -17 -18 -9 -23 6 -4 11 -12 11 -18 0 -12 -135 -6 -148
6 -6 7 54 256 95 398 l15 48 63 0 c35 0 66 -3 68 -7z m156 -3 c32 0 33 -1 27
-32 -3 -17 -8 -34 -11 -36 -8 -9 -89 -3 -116 9 -33 13 -32 10 -19 45 10 24 14
26 48 20 20 -3 52 -6 71 -6z m772 -7 c12 -15 12 -16 -4 -10 -10 4 -23 7 -28 7
-6 0 -7 5 -4 10 9 15 21 12 36 -7z m-546 -5 c4 -4 4 -20 0 -37 -6 -27 -11 -31
-41 -31 -52 0 -124 21 -124 35 0 42 11 47 86 43 40 -2 76 -6 79 -10z m4386
-40 c-33 -35 -226 -186 -231 -181 -3 3 49 57 114 121 103 100 120 113 127 96
4 -12 1 -25 -10 -36z m-4236 32 c6 -10 -21 -400 -31 -453 -6 -28 -7 -28 -57
-22 -29 4 -56 11 -62 16 -9 9 28 440 40 460 8 12 102 12 110 -1z m3895 -15
c21 -25 3 -52 -37 -57 -66 -8 -83 0 -83 38 l0 34 54 0 c35 0 58 -5 66 -15z
m-855 -52 c-10 -55 -21 -63 -80 -63 -76 0 -83 4 -76 48 l6 37 50 -3 c28 -2 61
1 75 7 14 5 27 10 29 10 2 1 0 -16 -4 -36z m-2646 8 c9 -6 10 -11 2 -15 -8 -5
-8 -13 -1 -26 8 -15 6 -20 -12 -26 -22 -7 -22 -7 5 -28 29 -23 27 -36 -5 -36
-26 0 -22 -19 7 -32 30 -13 28 -32 -3 -36 -29 -4 -28 -20 3 -34 32 -14 32 -38
1 -38 -38 0 -42 -20 -7 -33 36 -13 41 -42 9 -51 -23 -6 -23 -6 5 -27 29 -22
28 -39 -4 -39 -22 0 -24 -11 -7 -28 9 -9 5 -12 -20 -12 l-32 0 0 98 c0 55 -3
160 -7 235 l-6 137 29 0 c16 0 35 -4 43 -9z m2450 -7 c2 -2 -1 -22 -8 -44 -12
-40 -12 -40 -61 -40 -90 0 -119 26 -89 81 9 18 17 19 82 13 40 -4 74 -8 76
-10z m1247 4 c4 -6 -6 -23 -25 -40 l-32 -29 -18 23 c-29 36 -28 42 4 49 48 10
63 10 71 -3z m-4311 -19 l64 -12 -6 -46 c-3 -25 -9 -50 -14 -55 -10 -11 -72
-12 -123 -2 l-39 7 7 56 c8 65 13 76 32 69 8 -3 44 -11 79 -17z m949 5 c12
-31 6 -82 -10 -88 -17 -7 -92 3 -98 13 -2 3 -6 22 -8 41 l-3 35 50 6 c28 3 53
7 56 7 4 1 10 -5 13 -14z m-1131 -4 c33 0 37 -3 37 -26 0 -39 -18 -64 -46 -64
-35 0 -114 21 -114 30 0 4 3 22 6 40 7 31 9 32 43 26 20 -3 53 -6 74 -6z
m1252 -35 c0 -36 -3 -40 -33 -49 -41 -11 -52 1 -52 57 l0 38 43 -3 c42 -3 42
-3 42 -43z m2692 -28 c30 -41 31 -45 15 -62 -9 -9 -13 -19 -7 -21 25 -10 37
-23 31 -33 -14 -22 -46 -10 -71 26 -20 30 -25 50 -25 97 0 67 5 66 57 -7z
m194 -40 l51 -58 -41 -52 c-22 -29 -53 -68 -69 -86 l-29 -35 -7 52 c-8 59 -1
79 19 62 8 -7 22 -10 31 -8 14 3 13 8 -11 36 -31 38 -43 86 -37 152 l4 44 20
-24 c10 -14 42 -51 69 -83z m247 62 l28 -31 -76 -72 c-130 -125 -243 -226
-252 -226 -21 0 -1 33 80 130 62 75 100 111 132 127 25 12 37 22 28 23 -10 0
-18 5 -18 10 0 10 40 70 47 70 2 0 16 -14 31 -31z m-88 13 c0 -13 -89 -102
-94 -94 -4 6 -9 77 -7 95 1 10 101 9 101 -1z m3185 -114 c20 -38 35 -68 33
-68 -1 -1 -138 -12 -303 -25 -165 -13 -368 -29 -452 -36 -84 -7 -155 -10 -159
-7 -7 7 11 45 35 71 9 11 14 31 13 48 -3 26 1 31 49 54 29 13 56 22 60 20 6
-4 277 12 559 34 112 8 110 9 165 -91z m-4055 45 c0 -8 -10 -26 -22 -39 -19
-20 -33 -24 -86 -24 -69 0 -83 11 -61 52 17 33 19 33 98 30 56 -3 71 -7 71
-19z m-250 1 c43 -6 46 -10 28 -48 -13 -31 -36 -39 -101 -37 -64 1 -70 6 -62
50 10 51 12 53 56 47 21 -3 57 -9 79 -12z m1360 -8 c0 -13 -40 -30 -49 -21 -2
3 4 14 14 25 18 20 35 18 35 -4z m1983 10 c8 -20 -1 -26 -39 -26 -18 0 -34 -6
-37 -14 -6 -14 -57 -11 -57 4 0 13 68 32 90 25 14 -5 20 -2 20 9 0 20 16 21
23 2z m-9413 -31 c8 -2 -23 -2 -70 1 -47 3 -88 9 -93 13 -7 7 134 -5 163 -14z
m2864 9 l48 -7 -5 -45 c-3 -24 -10 -48 -16 -52 -16 -9 -123 8 -138 23 -9 9
-10 22 -1 55 10 39 13 43 37 38 14 -3 48 -8 75 -12z m1147 0 c31 -6 44 -38 23
-55 -18 -14 -100 -24 -107 -13 -3 5 -8 26 -12 47 l-7 38 38 -6 c22 -3 51 -9
65 -11z m133 -65 c-17 -19 -64 -27 -64 -10 0 5 -3 22 -6 39 -6 29 -5 31 37 39
43 9 44 8 47 -20 2 -17 -4 -37 -14 -48z m644 31 c-6 -23 -25 -55 -44 -74 -24
-24 -34 -43 -34 -65 0 -33 -79 -212 -107 -243 -12 -13 -31 -18 -76 -18 -59 0
-59 0 -53 26 4 14 29 71 56 126 27 55 59 129 70 163 12 35 26 68 33 73 12 10
131 49 153 51 9 1 9 -10 2 -39z m-4548 5 c115 -9 765 -72 1145 -111 187 -19
495 -50 685 -69 338 -35 455 -52 365 -54 -22 0 -69 4 -105 9 -71 10 -427 45
-1455 145 -777 76 -766 75 -759 86 3 5 15 7 27 5 12 -3 56 -8 97 -11z m2856
-15 c21 0 24 -5 24 -34 0 -43 -12 -52 -80 -59 -96 -11 -114 5 -93 82 6 22 9
23 66 17 33 -3 71 -6 83 -6z m4344 -10 c0 -11 -2 -20 -5 -20 -2 0 -9 9 -15 20
-9 16 -8 20 5 20 8 0 15 -9 15 -20z m2038 8 c-3 -8 -27 -14 -64 -16 -54 -2
-57 -1 -40 13 25 19 110 21 104 3z m-2083 -24 c22 -33 7 -45 -50 -42 -30 2
-41 8 -44 22 -8 46 67 62 94 20z m-140 6 c-3 -5 -20 -19 -38 -31 l-32 -22 29
31 c28 30 55 44 41 22z m1909 -14 c-3 -9 -17 -16 -31 -16 -13 0 -33 -5 -44
-10 -10 -6 -19 -7 -19 -3 0 8 92 52 98 48 1 -1 0 -10 -4 -19z m-4585 -7 c-6
-12 -29 -39 -50 -59 -24 -22 -39 -46 -39 -60 0 -13 -27 -70 -61 -127 -45 -77
-66 -103 -81 -103 -28 0 -102 67 -82 74 20 8 17 40 -6 61 -13 12 -20 31 -20
56 0 45 -2 44 190 125 141 60 167 66 149 33z m1674 11 c39 0 47 -3 47 -19 0
-15 -10 -19 -52 -25 -121 -14 -140 -8 -122 39 6 13 15 16 43 11 20 -3 57 -6
84 -6z m591 -86 c-4 -16 0 -25 15 -34 28 -15 26 -30 -4 -30 -34 0 -31 -19 5
-31 32 -12 32 -29 -1 -29 -14 0 -19 -6 -18 -17 5 -34 -11 -73 -30 -73 -16 0
-19 12 -23 98 -3 53 -3 122 0 152 l5 54 28 -34 c20 -23 27 -40 23 -56z m-765
59 c13 -11 -23 -22 -90 -28 -78 -7 -95 -2 -83 29 5 13 19 14 87 9 45 -3 84 -7
86 -10z m-2029 -12 c28 -53 -5 -85 -79 -79 -34 3 -36 5 -42 46 -3 23 -3 44 -1
47 3 3 29 5 58 5 42 0 55 -4 64 -19z m108 -13 c-12 -18 -49 -61 -80 -95 -32
-34 -58 -69 -58 -78 0 -11 -10 -15 -35 -15 -29 0 -37 5 -46 27 -19 50 -9 65
44 70 77 6 93 16 100 61 6 33 12 41 39 49 56 18 61 16 36 -19z m3132 -66 c0
-23 -42 -9 -64 21 l-21 29 29 25 30 25 13 -43 c7 -24 13 -50 13 -57z m2010 84
c0 -8 -7 -16 -15 -20 -15 -5 -21 14 -8 27 11 12 23 8 23 -7z m150 5 c0 -13
-26 -21 -65 -21 -50 0 -52 18 -3 23 24 2 49 4 56 5 6 1 12 -2 12 -7z m-6618
-28 c57 -6 58 -6 58 -37 0 -49 -13 -60 -67 -58 -71 1 -103 16 -103 47 0 38 18
68 37 60 9 -3 43 -8 75 -12z m4637 -34 c27 -36 21 -43 -41 -53 -30 -5 -39 -11
-36 -24 1 -9 -1 -23 -6 -31 -5 -8 -4 -16 5 -22 22 -13 8 -18 -79 -25 -59 -5
-82 -4 -82 5 0 6 -7 11 -15 11 -8 0 -15 -5 -15 -12 0 -9 -3 -9 -12 0 -18 18
-5 24 67 29 59 5 65 8 59 25 -9 28 12 46 72 64 72 21 83 39 18 29 -76 -12 -88
-11 -92 7 -3 17 17 23 99 26 29 2 39 -4 58 -29z m-309 17 c0 -2 -12 -12 -27
-21 l-28 -18 19 21 c17 20 36 29 36 18z m-985 -16 c4 -6 -9 -10 -32 -9 -30 0
-34 2 -18 9 27 12 43 12 50 0z m288 -12 c17 -9 18 -18 12 -81 -4 -40 -9 -75
-11 -78 -2 -4 -23 -3 -46 2 -24 4 -60 8 -81 9 -36 0 -38 2 -35 28 3 26 5 27
71 30 74 3 85 22 12 22 -24 0 -50 3 -59 6 -27 10 -7 24 35 24 50 0 51 18 2 22
-21 2 -37 8 -36 13 4 24 92 26 136 3z m2971 13 c4 -5 -33 -12 -81 -16 -49 -4
-96 -9 -105 -11 -13 -4 -18 0 -18 15 0 20 6 21 99 21 55 0 102 -4 105 -9z
m-6326 -16 c2 -2 1 -23 -3 -48 l-7 -44 -51 5 c-122 10 -137 20 -123 78 6 24 7
24 94 18 48 -4 88 -8 90 -9z m2952 5 c0 -5 -24 -10 -54 -10 -30 0 -58 5 -61
10 -4 6 17 10 54 10 34 0 61 -4 61 -10z m1140 -40 c-17 -11 -54 -13 -63 -3 -4
3 3 17 15 30 l22 23 20 -20 c18 -18 19 -22 6 -30z m-1360 22 c0 -26 -20 -42
-54 -43 l-31 -1 33 -9 c37 -11 41 -30 12 -59 -16 -16 -33 -20 -95 -20 -86 0
-86 0 -54 84 24 61 26 62 132 65 49 1 57 -2 57 -17z m66 4 c4 -10 29 -17 75
-22 38 -4 69 -11 69 -15 0 -5 -40 -9 -90 -9 -49 0 -90 3 -90 8 0 4 3 17 6 30
7 25 22 29 30 8z m374 4 c0 -5 -7 -10 -16 -10 -8 0 -12 5 -9 10 3 6 10 10 16
10 5 0 9 -4 9 -10z m-658 -6 c8 -8 -31 -121 -45 -132 -7 -4 -142 -23 -302 -40
-353 -39 -435 -56 -453 -95 -17 -35 -44 -37 -37 -2 3 14 7 36 10 50 3 14 10
23 15 20 4 -3 52 2 105 10 154 25 402 55 508 62 94 6 131 18 88 30 -12 3 -21
10 -21 16 0 14 -258 2 -440 -22 -80 -10 -147 -17 -149 -16 -8 8 86 25 254 45
99 13 184 27 190 32 6 5 -14 6 -50 3 -140 -14 -324 -37 -377 -47 -54 -10 -57
-12 -56 -39 1 -38 -8 -47 -28 -27 -20 20 -11 53 21 74 24 16 222 40 550 68
198 17 210 17 217 10z m2548 -25 c0 -11 -27 -12 -34 0 -3 4 -3 11 0 14 8 8 34
-3 34 -14z m1220 -14 c-17 -21 -110 -21 -110 0 0 10 15 15 58 17 67 4 69 3 52
-17z m-3115 6 c3 -5 2 -12 -2 -14 -14 -8 -183 5 -183 14 0 12 177 11 185 0z
m2965 -4 c0 -25 -178 -205 -216 -217 -19 -7 -37 -10 -40 -7 -2 2 17 22 43 43
27 21 83 73 125 116 42 43 79 78 82 78 3 0 6 -6 6 -13z m-5030 -46 c0 -23 -6
-44 -16 -51 -10 -9 -14 -26 -12 -48 3 -32 0 -36 -26 -43 -17 -5 -31 -7 -32 -6
-1 1 -5 36 -9 77 l-7 75 44 21 c23 12 46 20 51 17 4 -2 7 -21 7 -42z m4385 39
c10 -16 -25 -25 -238 -64 -218 -40 -247 -42 -247 -23 0 9 66 25 223 54 255 46
254 46 262 33z m-1865 -9 c0 -11 -156 -25 -172 -14 -8 5 11 10 47 14 98 9 125
9 125 0z m775 -1 c4 -6 -9 -10 -32 -9 -30 0 -34 2 -18 9 27 12 43 12 50 0z
m1579 -11 c-30 -33 -131 -106 -201 -146 -145 -81 -314 -129 -623 -178 -201
-32 -278 -41 -642 -80 -79 -9 -219 -24 -313 -35 -162 -19 -691 -60 -775 -60
-35 0 -40 3 -40 23 0 36 19 47 84 47 32 0 134 7 225 15 91 8 238 22 326 30
349 31 506 46 630 61 72 9 158 18 192 21 80 7 89 24 74 145 -9 73 -8 85 6 96
9 6 23 12 30 12 7 0 13 -6 14 -12 0 -7 4 -48 8 -91 11 -102 29 -122 104 -121
232 3 720 159 800 255 28 34 37 39 76 39 l44 0 -19 -21z m-8294 -8 c318 -34
725 -84 733 -91 8 -7 -176 12 -533 55 -118 14 -267 31 -330 39 -63 7 -99 14
-80 14 19 1 114 -7 210 -17z m1380 -26 c129 -14 240 -25 245 -25 30 -1 37 -17
25 -60 l-11 -43 -47 8 c-26 4 -85 10 -131 14 l-84 6 -20 38 c-11 21 -26 41
-34 44 -22 9 -74 -18 -84 -44 -12 -32 -67 -30 -139 5 -45 23 -55 33 -61 60
l-7 33 57 -6 c31 -3 162 -17 291 -30z m480 14 c11 -6 6 -8 -16 -9 -53 0 -124
12 -124 22 0 10 117 0 140 -13z m3360 11 c-18 -12 -88 -12 -115 0 -14 6 4 9
55 9 52 1 70 -2 60 -9z m524 -16 c13 -35 7 -64 -15 -64 -15 0 -19 4 -15 16 3
9 6 27 6 40 0 27 15 32 24 8z m-3706 -10 c17 -3 32 -9 32 -15 0 -6 -14 -8 -32
-5 -18 3 -54 8 -80 11 -27 4 -48 11 -48 16 0 10 33 8 128 -7z m1646 -41 c-14
-32 -32 -68 -40 -81 -19 -29 -39 -19 -23 11 21 40 79 127 84 127 2 0 -7 -26
-21 -57z m4216 48 c0 -9 -105 -30 -374 -77 -147 -25 -192 -29 -200 -16 -2 4
66 18 152 30 86 12 202 33 257 46 107 25 165 31 165 17z m658 4 c-9 -10 -108
-22 -113 -15 -9 14 9 20 63 20 31 0 53 -2 50 -5z m-4098 -30 c-107 -12 -223
-27 -257 -32 -35 -5 -63 -7 -63 -3 0 15 339 58 450 58 42 0 -5 -8 -130 -23z
m779 9 c9 -9 -8 -12 -91 -17 -78 -4 -88 -3 -88 12 0 15 10 17 88 13 48 -2 89
-6 91 -8z m229 0 c-2 -8 -6 -15 -10 -15 -5 1 -46 1 -93 1 -47 0 -85 4 -85 9 0
14 26 19 113 20 66 1 78 -1 75 -15z m1247 6 c-3 -5 -18 -10 -33 -10 -21 0 -24
2 -12 10 20 13 53 13 45 0z m55 0 c0 -5 -2 -10 -4 -10 -3 0 -8 5 -11 10 -3 6
-1 10 4 10 6 0 11 -4 11 -10z m-422 -24 c3 -14 -2 -17 -29 -14 -38 4 -50 25
-17 31 33 6 43 3 46 -17z m-4089 4 c18 0 22 -3 13 -9 -16 -10 -101 -2 -122 11
-10 6 2 7 34 4 27 -3 61 -6 75 -6z m-2019 -24 c390 -49 932 -102 1265 -124
l110 -7 -3 -44 c-2 -30 -10 -51 -25 -66 -12 -12 -26 -28 -32 -37 -11 -16 26
-19 -645 52 -241 26 -375 42 -727 87 -60 8 -55 -13 6 -26 98 -21 625 -88 946
-121 110 -11 234 -25 275 -30 41 -5 97 -11 123 -12 l49 -1 -7 -36 c-9 -45 -18
-51 -74 -45 -656 63 -875 90 -1211 145 -118 19 -152 31 -137 45 3 3 106 -8
229 -25 302 -42 480 -60 467 -47 -2 3 -56 12 -119 21 -63 9 -221 31 -350 50
l-235 35 -27 32 c-32 37 -37 62 -10 54 64 -19 611 -96 681 -96 68 0 20 10
-183 40 -288 41 -505 79 -527 91 -31 16 -23 32 14 25 215 -45 978 -144 932
-121 -5 2 -136 22 -290 44 -287 41 -680 107 -696 117 -11 6 -12 24 -1 24 4 0
95 -11 202 -24z m3050 5 c0 -11 -9 -23 -20 -26 -11 -3 -23 -17 -26 -30 -3 -13
-15 -27 -25 -30 -11 -4 -26 -20 -35 -36 -14 -27 -16 -28 -31 -14 -15 15 -10
22 53 86 38 38 72 69 76 69 5 0 8 -9 8 -19z m2580 9 c0 -5 -7 -10 -15 -10 -8
0 -15 5 -15 10 0 6 7 10 15 10 8 0 15 -4 15 -10z m74 1 c6 -10 -22 -37 -29
-29 -8 7 5 38 15 38 5 0 11 -4 14 -9z m1209 -12 c-5 -5 -59 -14 -119 -19 -111
-10 -319 -33 -454 -50 -41 -5 -183 -19 -315 -30 -324 -27 -518 -50 -530 -61
-13 -12 14 -12 195 6 85 8 277 27 425 41 149 13 387 36 530 49 297 28 288 28
281 16 -7 -10 -128 -26 -386 -51 -209 -19 -589 -57 -875 -86 -88 -8 -164 -20
-170 -26 -15 -16 217 -3 670 37 215 19 446 39 515 45 69 6 148 13 175 16 28 4
47 3 44 0 -12 -12 -521 -68 -1059 -116 -288 -26 -336 -32 -330 -45 10 -19 425
1 715 35 44 6 184 19 310 30 127 11 268 25 314 31 82 10 120 7 64 -5 -24 -5
-479 -53 -823 -86 -122 -12 -514 -40 -562 -40 -23 0 -38 5 -38 12 0 6 -6 19
-14 27 -10 12 -12 31 -6 79 4 35 10 65 12 68 3 2 90 11 194 19 296 24 820 74
1034 99 192 22 221 23 203 5z m-6223 -15 c0 -14 -27 -31 -35 -22 -2 2 -2 13 1
25 7 24 34 21 34 -3z m922 7 c4 -3 3 -22 0 -41 -8 -34 -8 -34 -60 -31 -36 2
-52 -1 -52 -10 0 -6 -12 1 -27 17 -15 16 -26 36 -25 44 7 39 10 40 84 34 40
-4 76 -9 80 -13z m599 9 c11 0 19 -5 19 -11 0 -14 -110 -2 -125 13 -7 7 5 9
39 4 27 -3 57 -6 67 -6z m733 -9 c7 -10 -32 -47 -40 -38 -3 3 -3 15 1 26 6 21
29 28 39 12z m690 -44 c-9 -26 -20 -47 -26 -47 -11 0 -3 31 19 73 21 42 25 27
7 -26z m3981 37 c-61 -17 -437 -91 -484 -96 -55 -5 -50 20 6 27 105 14 478 77
482 81 2 2 14 4 25 3 12 0 -1 -7 -29 -15z m645 2 c-17 -16 -120 -32 -120 -19
0 21 28 33 79 33 48 0 53 -2 41 -14z m-6462 -12 c44 -7 40 -21 -8 -29 -60 -10
-148 13 -135 36 6 9 55 6 143 -7z m657 -6 c12 -5 -15 -6 -70 -3 -49 4 -96 11
-105 16 -19 12 146 0 175 -13z m220 2 c-28 -12 -65 -12 -65 0 0 6 19 10 43 9
32 0 37 -2 22 -9z m2225 0 c0 -5 -18 -10 -40 -10 -44 0 -47 -5 -24 -38 13 -19
24 -22 75 -22 86 0 65 -16 -25 -18 -67 -3 -76 -1 -86 18 -6 12 -10 31 -8 43 2
18 11 23 53 28 28 3 51 7 53 7 1 1 2 -2 2 -8z m80 -9 c0 -19 -23 -45 -32 -35
-7 6 14 54 25 54 4 0 7 -8 7 -19z m100 14 c0 -3 -11 -10 -25 -15 -22 -8 -25
-14 -20 -42 5 -31 4 -32 -10 -14 -18 23 -18 31 -5 57 9 17 60 28 60 14z m136
-6 c3 -6 1 -15 -5 -19 -7 -4 -11 -15 -9 -26 2 -14 -5 -20 -37 -26 -22 -4 -56
-7 -75 -6 -32 0 -33 1 -10 8 14 4 39 8 56 9 36 1 49 22 34 52 -9 16 -7 19 14
19 14 0 28 -5 32 -11z m58 -13 c-3 -9 -10 -13 -16 -10 -5 3 -4 12 3 20 15 18
22 13 13 -10z m-3220 -16 c12 -12 -4 -70 -20 -70 -8 0 -14 6 -14 14 0 14 -48
26 -106 26 -38 0 -62 23 -46 43 9 10 29 11 94 4 46 -5 87 -13 92 -17z m2696
12 c0 -28 -11 -34 -26 -14 -19 24 -17 32 6 32 13 0 20 -7 20 -18z m3206 -6
c-89 -73 -296 -169 -441 -205 -174 -43 -639 -119 -825 -135 -36 -4 -159 -15
-275 -26 -390 -37 -839 -73 -940 -75 -5 0 -11 10 -13 22 -4 27 -8 27 373 48
160 9 324 21 365 26 41 5 228 25 415 44 458 46 722 86 958 146 116 29 291 103
372 157 41 28 46 26 11 -2z m-3341 -11 c-36 -29 -45 -31 -45 -7 0 26 9 32 44
32 l31 0 -30 -25z m-5304 -40 c6 -20 6 -26 -1 -19 -5 5 -12 25 -15 44 -5 36
-1 29 16 -25z m237 9 c68 -18 155 -40 194 -48 38 -8 72 -17 76 -20 13 -14 -53
-3 -217 34 -179 41 -228 56 -246 73 -14 14 47 1 193 -39z m4977 14 c-11 -49
-16 -52 -31 -22 -15 29 -5 54 23 54 11 0 13 -8 8 -32z m-2301 2 c6 -6 -1 -13
-18 -20 -54 -20 -116 -8 -116 23 0 18 4 19 62 13 34 -3 66 -10 72 -16z m2019
-5 c1 -6 -29 -11 -68 -13 -79 -3 -80 9 -2 19 61 7 68 7 70 -6z m3947 0 c-8
-10 -31 -15 -68 -15 -84 0 -46 26 42 29 33 1 37 -1 26 -14z m-6373 -1 c-3 -3
-12 -4 -19 -1 -8 3 -5 6 6 6 11 1 17 -2 13 -5z m680 -11 c52 -12 5 -21 -109
-19 -112 1 -123 3 -126 20 -4 18 1 19 104 12 60 -4 119 -10 131 -13z m-767
-19 c0 -2 -7 -4 -15 -4 -8 0 -15 4 -15 10 0 5 7 7 15 4 8 -4 15 -8 15 -10z
m5665 7 c-12 -11 -93 -26 -83 -15 4 4 25 10 45 14 21 4 40 8 43 9 2 0 0 -3 -5
-8z m-4705 -11 c0 -5 -5 -10 -12 -10 -6 0 -19 -7 -29 -16 -21 -19 -39 -11 -39
17 0 16 7 19 40 19 22 0 40 -4 40 -10z m2030 0 c-20 -13 -117 -13 -125 0 -4 6
21 10 67 10 51 0 68 -3 58 -10z m-5117 -36 c141 -35 188 -52 112 -39 -65 11
-249 56 -265 66 -28 16 9 10 153 -27z m4812 26 c4 -6 -9 -10 -32 -9 -34 1 -35
2 -13 9 35 11 38 11 45 0z m-2887 -17 l52 -5 0 -47 c0 -41 -4 -50 -25 -61 -14
-8 -28 -24 -32 -37 -3 -16 -11 -22 -20 -19 -8 3 -25 6 -38 6 -16 0 -26 7 -30
23 -3 12 -11 32 -17 44 -6 13 -8 40 -3 68 6 45 8 47 33 40 15 -4 51 -9 80 -12z
m3912 -5 c-1 -61 -8 -68 -74 -69 -62 0 -107 -11 -90 -21 5 -3 41 -2 79 2 39 5
72 6 74 4 2 -2 1 -10 -2 -18 -7 -17 -90 -30 -157 -24 l-44 4 3 59 c1 33 6 63
9 67 7 7 64 13 155 16 43 2 47 0 47 -20z m1795 12 c-11 -5 -33 -8 -50 -8 l-30
0 30 8 c17 4 39 8 50 8 l20 1 -20 -9z m701 -25 c-9 -7 -37 -16 -62 -20 -28 -4
-44 -11 -41 -18 4 -12 158 -12 202 0 15 4 17 2 9 -6 -6 -6 -53 -16 -105 -21
-137 -15 -161 -20 -156 -33 3 -8 30 -11 92 -8 121 5 103 -15 -22 -23 -108 -8
-133 -13 -133 -27 0 -5 37 -9 83 -10 109 -1 76 -16 -57 -26 -65 -5 -101 -12
-104 -20 -3 -10 18 -13 80 -13 109 -1 84 -16 -48 -30 -54 -6 -99 -12 -102 -14
-2 -3 -1 -10 3 -17 6 -8 27 -10 71 -5 36 4 64 3 64 -2 0 -13 -50 -22 -119 -23
-31 0 -65 -4 -76 -9 -19 -7 -18 -9 8 -19 16 -6 49 -11 75 -12 73 -1 22 -15
-82 -23 -50 -3 -92 -9 -95 -12 -12 -12 28 -24 84 -25 51 -1 56 -2 30 -10 -16
-4 -60 -11 -97 -14 -38 -4 -68 -11 -68 -15 0 -12 63 -23 100 -18 17 3 30 1 30
-3 0 -3 -30 -10 -67 -13 -99 -10 -133 -17 -133 -27 0 -5 32 -9 70 -9 105 0 84
-17 -30 -25 -136 -10 -134 -31 5 -38 57 -2 59 -3 32 -15 -16 -6 -61 -12 -102
-12 -78 0 -108 -6 -99 -21 3 -5 44 -9 90 -9 64 0 85 -3 82 -12 -3 -9 -40 -15
-116 -18 -61 -3 -114 -9 -118 -13 -16 -15 11 -22 104 -27 l97 -5 -109 -8
c-145 -9 -206 -9 -206 2 0 5 6 12 13 15 6 3 -150 4 -348 2 -372 -5 -425 6 -90
18 105 4 244 11 310 16 151 12 225 34 199 60 -8 8 -31 8 -76 0 -110 -17 -1069
-61 -1291 -59 -182 2 -151 6 163 19 635 25 755 31 900 45 167 16 315 39 368
56 56 18 21 29 -48 14 -145 -30 -633 -67 -833 -64 -69 1 97 21 503 59 266 24
507 71 525 100 9 14 -14 12 -107 -9 -139 -32 -483 -72 -813 -95 -697 -50
-2160 -78 -2923 -58 -1286 36 -1534 46 -2027 88 -340 28 -858 99 -755 103 14
0 52 -3 85 -9 62 -10 429 -51 615 -70 164 -16 547 -38 865 -50 160 -6 405 -15
545 -20 598 -23 1752 -34 2205 -21 730 20 1244 50 1650 97 343 40 685 102 685
126 0 5 -8 7 -17 4 -18 -5 -94 -19 -193 -37 -30 -5 -188 -22 -350 -39 -162
-16 -340 -34 -395 -40 -100 -11 -591 -40 -674 -40 -104 0 -17 11 239 30 324
23 319 23 620 61 467 59 911 136 926 161 5 8 -5 9 -32 4 -270 -46 -582 -81
-1189 -130 -360 -30 -462 -36 -444 -26 8 4 59 10 114 14 217 15 799 67 950 86
342 43 621 100 725 148 73 34 41 40 -66 13 -336 -84 -1077 -175 -1684 -206
-63 -3 -131 -8 -150 -10 -30 -4 -31 -3 -10 4 14 5 106 14 205 21 477 31 1205
122 1490 185 214 48 336 89 455 153 60 33 77 39 94 30 18 -10 18 -11 2 -23z
m194 25 c0 -12 -66 -30 -115 -30 -37 0 -38 1 -19 14 11 8 43 16 70 19 27 2 52
4 57 5 4 1 7 -2 7 -8z m-8695 -81 c33 -45 36 -47 111 -58 103 -15 109 -25 11
-17 -110 10 -122 16 -157 85 -16 33 -30 64 -30 68 1 8 4 4 65 -78z m7705 71
c0 -5 -4 -10 -10 -10 -5 0 -10 5 -10 10 0 6 5 10 10 10 6 0 10 -4 10 -10z
m-5388 -9 c60 -1 66 -3 61 -20 -6 -25 -71 -35 -126 -20 -69 18 -93 49 -34 43
17 -1 62 -3 99 -3z m1041 2 c-7 -2 -19 -2 -25 0 -7 3 -2 5 12 5 14 0 19 -2 13
-5z m724 1 c-3 -3 -12 -4 -19 -1 -8 3 -5 6 6 6 11 1 17 -2 13 -5z m-1526 -14
c42 0 49 -3 49 -19 0 -31 -85 -38 -172 -14 -10 2 -18 14 -18 25 0 19 4 20 46
14 26 -3 69 -6 95 -6z m2967 -19 c-4 -36 -41 -51 -125 -51 l-73 0 0 28 c0 15
4 32 10 38 5 5 50 9 100 9 l91 1 -3 -25z m232 4 c0 -27 -18 -40 -71 -50 -65
-12 -144 36 -112 68 3 4 46 7 95 7 87 0 88 0 88 -25z m-3006 8 l39 -6 -6 -56
c-8 -87 -21 -107 -75 -115 -27 -4 -50 -2 -58 5 -15 12 -18 78 -8 142 6 34 10
37 38 37 17 0 48 -3 70 -7z m2542 -15 c-4 -13 -9 -36 -12 -53 -3 -16 -10 -49
-16 -72 l-11 -43 -68 0 c-63 0 -68 2 -71 23 -2 13 -11 23 -24 25 -20 3 -20 6
-12 55 16 87 16 87 125 87 94 0 95 0 89 -22z m-1971 -13 c345 -9 1088 -6 1360
5 366 14 365 15 365 -13 0 -44 -13 -47 -211 -47 -115 0 -190 -4 -194 -10 -4
-7 56 -10 174 -10 184 0 211 -3 211 -25 0 -16 -150 -25 -421 -25 -128 0 -210
-4 -214 -10 -4 -7 101 -10 306 -10 241 0 310 -3 301 -12 -15 -15 -1508 -18
-1880 -4 l-242 9 -30 29 c-27 25 -30 33 -24 71 10 64 21 69 154 63 63 -3 219
-8 345 -11z m-1073 -18 c26 -7 55 -22 63 -32 14 -20 15 -20 21 3 7 25 34 30
34 7 0 -8 -10 -31 -22 -50 l-23 -35 -60 6 c-69 7 -85 21 -85 76 0 42 2 43 72
25z m276 -24 c45 -3 82 -9 82 -13 0 -4 -14 -13 -30 -20 -18 -7 -33 -22 -36
-36 -6 -22 -12 -24 -60 -24 -51 0 -54 2 -54 24 0 14 -4 28 -10 31 -5 3 -10 18
-10 32 0 20 4 24 18 18 9 -3 54 -9 100 -12z m3092 -9 c37 -15 82 -14 126 3 9
3 14 -2 14 -17 0 -43 -17 -58 -74 -65 -48 -6 -55 -5 -79 19 -14 14 -31 26 -37
26 -11 0 -14 33 -3 43 8 9 7 9 53 -9z m-3660 -45 l5 -34 78 -9 79 -9 -7 -36
c-4 -20 -9 -39 -11 -43 -6 -9 -96 -9 -139 1 l-30 6 0 83 c0 83 15 108 25 41z
m3560 13 c0 -49 -21 -65 -87 -70 -58 -4 -61 -3 -67 22 -3 14 -15 30 -26 36
-38 20 -20 29 63 33 45 1 90 4 100 5 12 1 17 -5 17 -26z m470 -22 c0 -5 -8
-10 -17 -10 -10 0 -42 -3 -70 -6 -45 -6 -53 -4 -53 10 0 13 12 16 70 16 40 0
70 -4 70 -10z m-397 -65 c12 -3 54 -4 92 -3 l70 3 0 -30 c0 -34 -19 -42 -107
-44 -32 -1 -58 -5 -58 -11 0 -11 22 -13 108 -10 40 1 52 -2 52 -13 0 -21 -19
-26 -117 -34 l-85 -6 3 89 c2 88 11 131 17 87 2 -14 12 -25 25 -28z m-3246 10
c9 -3 11 -15 6 -37 -11 -58 -18 -61 -117 -54 -50 4 -92 9 -94 11 -2 2 0 23 3
48 l7 44 91 -4 c51 -3 98 -6 104 -8z m-1570 -5 c24 -6 195 -37 380 -70 185
-33 339 -63 342 -67 23 -24 -510 58 -702 109 -105 27 -122 51 -20 28z m1725
-7 l78 -6 0 -37 c0 -62 -12 -68 -112 -56 l-88 10 0 30 c0 52 11 78 28 71 9 -3
51 -9 94 -12z m3488 -11 l0 -30 -85 -7 c-47 -4 -85 -11 -85 -16 0 -11 6 -12
97 -9 68 2 71 1 66 -19 -6 -24 -16 -27 -107 -36 -79 -8 -86 -3 -86 60 0 80 0
80 106 83 l94 4 0 -30z m-3232 -2 l43 0 -3 -47 -3 -48 -40 -3 c-22 -2 -64 -1
-92 3 l-53 6 0 51 0 51 53 -7 c28 -3 71 -6 95 -6z m1391 -23 c565 -1 876 -6
878 -12 10 -34 -10 -37 -350 -44 -185 -3 -339 -10 -343 -14 -4 -4 53 -7 128
-7 276 0 558 -13 558 -25 0 -18 -719 -27 -1245 -15 -476 11 -909 27 -939 36
-15 5 -17 12 -12 47 4 22 8 43 10 46 2 3 102 3 223 -2 120 -4 611 -8 1092 -10z
m1034 11 l77 4 0 -27 c0 -30 -3 -32 -92 -40 -38 -4 -68 -11 -68 -16 0 -5 34
-9 75 -9 75 0 88 -7 60 -30 -17 -14 -123 -25 -159 -16 -22 5 -26 12 -26 45 0
21 3 53 6 70 6 27 10 30 28 24 11 -4 56 -6 99 -5z m337 -12 c0 -29 -10 -33
-105 -42 -41 -4 -75 -11 -75 -15 0 -5 39 -9 87 -9 l87 0 -20 -20 c-17 -17 -35
-21 -110 -23 l-89 -2 -3 44 c-6 86 -7 86 118 88 l110 3 0 -24z m-4427 -213
c-13 -2 -33 -2 -45 0 -13 2 -3 4 22 4 25 0 35 -2 23 -4z m-136 -30 c-20 -2
-52 -2 -70 0 -17 2 0 4 38 4 39 0 53 -2 32 -4z m4993 -33 c-85 -4 -225 -7
-310 -7 -144 1 -148 1 -55 7 55 3 195 6 310 6 l210 0 -155 -6z m-4807 -16 c77
-3 137 -10 137 -16 0 -5 -8 -7 -17 -4 -10 2 -106 8 -214 11 -108 4 -203 11
-210 17 -9 5 20 7 76 4 50 -3 152 -9 228 -12z m-408 -14 c-3 -5 -30 -10 -58
-9 -38 0 -47 3 -32 9 29 12 98 12 90 0z m365 -31 c113 -6 216 -15 230 -20 17
-5 6 -7 -35 -4 -33 3 -145 10 -250 16 -104 6 -192 13 -194 15 -7 6 28 5 249
-7z m868 4 c-10 -2 -28 -2 -40 0 -13 2 -5 4 17 4 22 1 32 -1 23 -4z m687 -33
c737 -30 1729 -49 2483 -50 459 0 611 -3 606 -11 -5 -9 -210 -10 -808 -6
-1159 9 -2352 42 -2736 77 -108 10 12 7 455 -10z m4055 -110 c0 -6 -56 -9
-152 -8 -121 1 -138 3 -83 8 117 11 235 11 235 0z m-2205 -20 c3 -5 1 -10 -4
-10 -6 0 -11 5 -11 10 0 6 2 10 4 10 3 0 8 -4 11 -10z"/>
<path d="M6120 8479 c0 -5 5 -7 10 -4 6 3 10 8 10 11 0 2 -4 4 -10 4 -5 0 -10
-5 -10 -11z"/>
<path d="M6253 8319 c-82 -126 -117 -188 -111 -194 4 -4 118 165 173 253 14
24 25 48 23 54 -2 6 -40 -45 -85 -113z"/>
<path d="M5987 8403 c-8 -15 -38 -80 -67 -143 -28 -63 -65 -136 -81 -162 -43
-71 -20 -58 28 15 40 60 148 305 139 314 -3 3 -11 -8 -19 -24z"/>
<path d="M6018 8294 c-106 -195 -110 -203 -89 -189 16 9 173 304 169 316 -2 6
-38 -51 -80 -127z"/>
<path d="M6687 8358 c-58 -82 -91 -138 -80 -138 8 0 101 128 123 168 24 48 1
31 -43 -30z"/>
<path d="M6538 8322 c-54 -81 -81 -132 -71 -132 5 0 27 31 50 68 23 37 52 82
64 100 11 17 17 32 11 32 -5 0 -29 -30 -54 -68z"/>
<path d="M7018 8342 c-50 -53 -88 -102 -88 -113 0 -22 21 -4 79 65 63 77 71
113 9 48z"/>
<path d="M6798 8333 c-38 -42 -71 -93 -64 -100 3 -4 7 -4 9 -2 1 2 20 27 42
54 59 77 58 75 48 75 -5 0 -21 -12 -35 -27z"/>
<path d="M6876 8295 c-26 -36 -46 -71 -44 -77 5 -15 98 107 98 128 0 8 -1 14
-3 14 -2 0 -25 -29 -51 -65z"/>
<path d="M7101 8308 c-31 -32 -47 -65 -37 -75 3 -4 7 -4 9 -2 1 2 19 25 40 51
20 25 37 49 37 52 0 14 -20 4 -49 -26z"/>
<path d="M7220 8289 c-7 -11 -9 -23 -6 -26 8 -9 36 17 36 33 0 21 -18 17 -30
-7z"/>
<path d="M4787 8413 c-7 -13 23 -415 33 -448 7 -20 8 29 5 140 -8 264 -18 344
-38 308z"/>
<path d="M4897 8243 c-9 -54 -7 -434 2 -458 4 -10 11 93 15 229 4 146 3 253
-2 258 -6 6 -12 -6 -15 -29z"/>
<path d="M5126 7871 c-12 -18 -19 -166 -8 -156 6 6 13 45 17 88 7 72 4 90 -9
68z"/>
<path d="M5108 7350 c-3 -8 -9 -114 -12 -235 -4 -121 -9 -258 -11 -305 -4 -56
-2 -78 4 -64 5 11 14 119 21 240 12 218 11 393 -2 364z"/>
<path d="M5012 7175 c0 -93 4 -219 8 -280 5 -87 7 -55 8 150 0 143 -3 269 -8
280 -5 12 -8 -47 -8 -150z"/>
<path d="M5068 6600 c-1 -28 0 -50 5 -50 4 0 7 23 7 50 0 65 -7 65 -12 0z"/>
<path d="M6005 7130 c-33 -63 -116 -200 -185 -305 -150 -226 -143 -215 -133
-215 4 0 27 28 50 63 24 34 63 91 89 127 100 143 249 410 241 433 -2 7 -30
-40 -62 -103z"/>
<path d="M5736 7039 c-47 -96 -121 -243 -166 -326 -45 -84 -79 -153 -76 -153
28 0 351 629 332 647 -3 4 -44 -72 -90 -168z"/>
<path d="M5880 7120 c-23 -46 -88 -160 -144 -254 -144 -240 -177 -298 -173
-302 5 -5 182 273 250 392 56 97 120 234 113 241 -2 3 -23 -32 -46 -77z"/>
<path d="M6564 7108 c-26 -40 -86 -127 -133 -193 -105 -145 -112 -156 -86
-135 23 19 132 165 212 285 76 115 76 115 64 115 -5 0 -31 -33 -57 -72z"/>
<path d="M6255 7093 c-48 -85 -123 -193 -238 -346 -49 -65 -87 -121 -84 -123
7 -8 164 191 239 303 77 115 144 233 131 233 -5 0 -26 -30 -48 -67z"/>
<path d="M6781 6971 c-125 -186 -152 -245 -45 -98 85 115 99 137 139 207 66
116 28 72 -94 -109z"/>
<path d="M6347 7012 c-49 -70 -124 -176 -168 -236 -43 -60 -77 -112 -74 -114
3 -3 6 -3 8 -1 165 215 322 434 334 466 3 7 1 13 -3 12 -5 0 -49 -57 -97 -127z"/>
<path d="M6114 7103 c-10 -16 -85 -130 -167 -256 -83 -125 -148 -229 -145
-232 9 -10 272 384 322 483 20 39 13 43 -10 5z"/>
<path d="M6695 7082 c-16 -26 -68 -99 -115 -162 -102 -136 -112 -153 -76 -120
61 55 238 311 224 325 -2 2 -17 -17 -33 -43z"/>
<path d="M7024 7113 c-198 -309 -230 -363 -217 -363 19 1 255 380 236 380 -4
0 -13 -8 -19 -17z"/>
<path d="M7124 7023 c-32 -54 -79 -132 -106 -172 -26 -41 -45 -77 -43 -80 6
-6 1 -13 82 109 70 105 138 228 130 236 -2 3 -30 -39 -63 -93z"/>
<path d="M7308 7064 c-12 -22 -55 -87 -96 -147 -78 -115 -98 -152 -69 -129 39
32 205 297 194 309 -4 3 -16 -12 -29 -33z"/>
<path d="M7393 6949 c-69 -108 -97 -159 -86 -159 13 0 155 228 151 241 -2 7
-31 -30 -65 -82z"/>
<path d="M7502 6898 c-29 -39 -49 -74 -46 -77 7 -8 66 62 94 111 35 63 7 43
-48 -34z"/>
<path d="M7641 6895 c-17 -20 -31 -40 -31 -45 0 -22 21 -7 50 35 37 54 25 60
-19 10z"/>
<path d="M6446 6744 c-10 -25 1 -29 14 -5 6 12 7 21 1 21 -5 0 -12 -7 -15 -16z"/>
<path d="M6286 6725 c-9 -14 -13 -25 -9 -25 10 0 36 40 30 46 -2 3 -12 -7 -21
-21z"/>
<path d="M7365 7891 c-3 -5 3 -12 12 -15 38 -11 663 -19 663 -8 0 18 -664 40
-675 23z"/>
<path d="M8150 7861 c22 -13 470 -26 470 -14 0 6 -28 13 -61 17 -93 9 -427 7
-409 -3z"/>
<path d="M2123 7468 c-32 -42 -163 -439 -163 -494 0 -17 21 41 141 385 38 109
44 137 22 109z"/>
<path d="M2130 7253 c-12 -32 -37 -98 -55 -148 -18 -49 -63 -170 -99 -268 -67
-182 -73 -198 -57 -181 24 25 256 654 241 654 -4 0 -18 -26 -30 -57z"/>
<path d="M2157 7059 c-102 -244 -234 -579 -227 -579 16 0 265 611 258 632 -2
6 -16 -17 -31 -53z"/>
<path d="M2681 6773 c-47 -105 -93 -234 -87 -241 7 -6 19 20 85 181 65 158 65
157 53 157 -5 0 -28 -44 -51 -97z"/>
<path d="M2732 6688 c-80 -147 -220 -473 -208 -486 8 -7 5 -13 61 118 27 63
83 188 126 278 80 166 92 219 21 90z"/>
<path d="M2793 6568 c-6 -7 -41 -74 -78 -148 -37 -74 -102 -198 -145 -275 -67
-121 -105 -202 -87 -185 32 30 336 605 325 615 -3 3 -10 0 -15 -7z"/>
<path d="M2566 6470 c-18 -45 -21 -70 -7 -54 12 12 34 84 28 90 -2 3 -12 -13
-21 -36z"/>
<path d="M2417 5083 c-111 -153 -477 -714 -493 -757 -15 -39 18 -4 63 68 120
188 178 276 297 456 71 107 142 211 157 231 31 39 35 49 20 49 -5 0 -25 -21
-44 -47z"/>
<path d="M2583 4948 c-23 -30 -24 -41 -2 -21 12 12 20 25 17 28 -3 3 -10 0
-15 -7z"/>
<path d="M1530 4815 c0 -9 -22 -61 -49 -118 -53 -112 -104 -243 -240 -622 -96
-269 -127 -365 -112 -350 9 10 58 140 226 600 43 116 106 274 141 352 35 77
64 144 64 147 0 3 -7 6 -15 6 -8 0 -15 -7 -15 -15z"/>
<path d="M2275 4493 c-118 -175 -242 -356 -275 -403 -60 -86 -116 -180 -106
-180 3 0 35 44 72 98 37 53 116 165 175 247 138 194 368 555 354 555 -2 0
-101 -143 -220 -317z"/>
<path d="M2645 4613 l-28 -38 36 34 c39 37 42 41 28 41 -5 0 -21 -17 -36 -37z"/>
<path d="M1543 4499 c-60 -136 -154 -373 -243 -614 -43 -115 -114 -302 -158
-415 -89 -229 -137 -369 -129 -376 3 -3 11 12 17 33 7 21 56 148 110 283 54
135 119 304 145 375 65 181 207 549 262 677 24 59 43 113 41 119 -2 7 -22 -30
-45 -82z"/>
<path d="M2563 4508 c-35 -39 -133 -179 -133 -192 1 -15 27 19 101 127 61 89
68 104 32 65z"/>
<path d="M2378 4243 c-31 -36 -140 -206 -257 -401 -120 -200 -153 -261 -114
-212 21 27 250 390 320 508 24 41 51 85 60 98 18 28 13 32 -9 7z"/>
<path d="M1515 4028 c-91 -191 -151 -329 -245 -563 -120 -300 -324 -854 -318
-861 7 -7 105 238 258 646 116 309 253 636 341 812 62 125 64 128 51 128 -5 0
-44 -73 -87 -162z"/>
<path d="M2422 3997 c-22 -29 -75 -113 -119 -187 -190 -320 -266 -446 -376
-618 -64 -100 -119 -187 -122 -192 -3 -6 -4 -10 -1 -10 3 0 43 53 90 119 91
127 184 276 371 601 65 113 135 230 155 260 47 70 52 80 46 80 -3 0 -23 -24
-44 -53z"/>
<path d="M2608 3928 c-35 -47 -679 -1025 -707 -1073 l-23 -40 30 33 c29 33 64
84 339 497 142 213 360 551 382 593 17 32 7 27 -21 -10z"/>
<path d="M2740 3765 c-7 -9 -11 -18 -8 -20 3 -3 11 1 18 10 7 9 11 18 8 20 -3
3 -11 -1 -18 -10z"/>
<path d="M1492 3678 c-11 -24 -50 -108 -87 -188 -37 -80 -143 -332 -235 -561
-93 -229 -197 -478 -231 -553 -34 -75 -60 -139 -57 -141 11 -12 189 381 318
705 138 345 198 489 275 655 50 108 56 125 45 125 -5 0 -18 -19 -28 -42z"/>
<path d="M2569 3508 c-114 -166 -273 -380 -452 -611 -54 -71 -97 -130 -95
-133 6 -6 119 129 210 251 207 278 251 340 330 455 94 139 132 200 125 200 -3
0 -56 -73 -118 -162z"/>
<path d="M2720 3387 c-91 -122 -227 -300 -304 -395 -76 -95 -136 -175 -133
-178 11 -12 321 380 514 650 43 60 84 117 92 127 7 11 10 19 5 19 -5 0 -83
-100 -174 -223z"/>
<path d="M1080 3589 c0 -5 5 -7 10 -4 6 3 10 8 10 11 0 2 -4 4 -10 4 -5 0 -10
-5 -10 -11z"/>
<path d="M2754 3138 c-120 -138 -272 -312 -336 -387 -126 -144 -158 -195 -56
-90 60 62 348 394 476 548 34 42 81 98 103 124 23 27 39 50 37 52 -2 3 -103
-109 -224 -247z"/>
<path d="M2965 3084 c-49 -59 -198 -213 -330 -342 -256 -250 -279 -281 -63
-84 155 140 292 281 398 406 92 109 105 126 94 126 -5 0 -49 -48 -99 -106z"/>
<path d="M2910 2801 c-107 -109 -237 -237 -289 -285 -51 -47 -90 -86 -85 -86
17 0 232 197 407 374 163 165 190 197 170 196 -5 0 -96 -90 -203 -199z"/>
<path d="M3025 2692 c-60 -59 -155 -144 -210 -189 -139 -114 -182 -152 -170
-153 28 -1 505 416 505 441 0 19 -19 5 -125 -99z"/>
<path d="M3030 2498 c-69 -55 -151 -119 -182 -141 -32 -22 -56 -43 -53 -45 8
-8 111 61 230 156 147 117 149 118 138 125 -4 3 -64 -40 -133 -95z"/>
<path d="M3012 2334 c-41 -31 -71 -58 -69 -61 5 -5 157 104 157 112 0 12 -21
0 -88 -51z"/>
<path d="M9250 5720 c0 -49 3 -90 8 -90 4 0 8 41 9 90 2 54 -1 90 -7 90 -6 0
-10 -38 -10 -90z"/>
<path d="M9386 5709 c-8 -37 -26 -200 -26 -236 0 -18 4 -33 8 -33 5 0 14 64
20 142 10 135 9 180 -2 127z"/>
<path d="M9490 5468 c0 -18 -9 -82 -20 -143 -28 -151 -28 -155 -20 -155 4 0
10 17 13 38 3 20 12 69 20 107 23 107 30 185 18 185 -6 0 -11 -15 -11 -32z"/>
<path d="M9586 5328 c-16 -86 -36 -221 -33 -225 7 -6 35 117 43 185 6 59 -1
88 -10 40z"/>
<path d="M9661 5174 c-44 -170 -84 -320 -88 -333 -4 -11 -3 -13 5 -6 13 12 75
216 92 303 14 69 7 96 -9 36z"/>
<path d="M9747 5090 c-3 -8 -8 -37 -12 -65 -4 -27 -21 -104 -40 -170 -44 -163
-49 -182 -36 -170 22 22 107 367 98 403 -3 14 -5 14 -10 2z"/>
<path d="M9819 4963 c-1 -5 -3 -28 -5 -53 -2 -25 -19 -131 -37 -237 -18 -106
-30 -190 -26 -188 11 7 28 86 54 253 14 86 28 174 31 195 4 25 3 37 -5 37 -6
0 -11 -3 -12 -7z"/>
<path d="M9916 4768 c-3 -7 -10 -42 -16 -78 -7 -36 -39 -159 -71 -274 -33
-115 -58 -214 -56 -220 10 -26 133 412 152 538 7 42 0 64 -9 34z"/>
<path d="M9985 4553 c-26 -93 -69 -218 -149 -435 -19 -54 -32 -98 -28 -98 17
0 190 492 208 593 11 67 -3 39 -31 -60z"/>
<path d="M10095 4474 c-11 -60 -68 -219 -138 -384 -75 -179 -107 -261 -107
-275 1 -19 32 48 115 248 104 252 168 447 146 447 -5 0 -12 -16 -16 -36z"/>
<path d="M9722 4380 c0 -14 2 -19 5 -12 2 6 2 18 0 25 -3 6 -5 1 -5 -13z"/>
<path d="M10181 4224 c-12 -31 -20 -61 -18 -67 2 -6 14 17 26 52 13 34 21 64
18 67 -3 3 -15 -20 -26 -52z"/>
<path d="M10140 4115 c0 -8 2 -15 4 -15 2 0 6 7 10 15 3 8 1 15 -4 15 -6 0
-10 -7 -10 -15z"/>
<path d="M10246 3931 c-47 -94 -86 -174 -86 -178 0 -5 15 15 32 42 39 62 150
296 144 302 -3 3 -43 -72 -90 -166z"/>
<path d="M10025 3864 c-72 -136 -85 -179 -18 -61 41 72 95 187 88 187 -2 0
-34 -57 -70 -126z"/>
<path d="M9781 3963 c-1 -6 -4 -20 -7 -30 -5 -17 -5 -17 6 0 6 10 9 23 6 30
-3 9 -5 9 -5 0z"/>
<path d="M10457 3933 c-46 -74 -138 -253 -130 -253 9 0 135 218 152 263 15 38
5 34 -22 -10z"/>
<path d="M10559 3763 c-26 -32 -91 -135 -87 -139 4 -3 76 92 101 134 13 21 2
24 -14 5z"/>
<path d="M8655 5038 c-12 -35 -31 -178 -24 -178 5 0 9 3 9 8 0 4 6 46 14 95
12 80 12 106 1 75z"/>
<path d="M8737 4790 c-28 -138 -35 -197 -17 -154 15 38 51 234 48 262 -2 15
-15 -33 -31 -108z"/>
<path d="M8861 4707 c-7 -45 -23 -129 -37 -186 -28 -119 -25 -146 5 -44 32
108 63 300 50 308 -3 3 -12 -32 -18 -78z"/>
<path d="M9041 4372 c-16 -56 -80 -249 -131 -396 -22 -65 -39 -121 -36 -124 6
-5 8 -1 81 200 65 175 108 322 102 346 -2 10 -8 1 -16 -26z"/>
<path d="M8772 4310 c0 -14 2 -19 5 -12 2 6 2 18 0 25 -3 6 -5 1 -5 -13z"/>
<path d="M9241 3870 c-9 -41 -101 -275 -181 -460 -123 -283 -122 -280 -111
-280 25 0 308 691 298 729 -3 9 -5 14 -6 11z"/>
<path d="M9322 3700 c-11 -25 -37 -85 -57 -135 -21 -49 -85 -186 -142 -304
-56 -118 -101 -216 -99 -218 17 -18 334 661 322 691 -2 6 -13 -9 -24 -34z"/>
<path d="M9573 3229 c-81 -135 -125 -219 -116 -219 4 0 15 12 24 28 9 15 46
78 83 141 37 62 65 118 63 124 -2 6 -26 -27 -54 -74z"/>
<path d="M9761 3072 c-18 -45 -32 -85 -29 -87 8 -8 70 135 66 152 -2 10 -18
-19 -37 -65z"/>
<path d="M4263 5295 c3 -71 17 -229 31 -350 14 -121 46 -418 71 -660 51 -500
52 -508 66 -499 7 4 8 31 4 73 -10 105 -103 962 -119 1106 -9 72 -22 201 -30
289 -9 87 -18 161 -22 165 -4 3 -4 -52 -1 -124z"/>
<path d="M4270 4593 c0 -44 7 -172 15 -284 8 -112 21 -325 30 -474 18 -304 22
-347 35 -324 11 19 -63 1145 -75 1157 -3 3 -5 -31 -5 -75z"/>
<path d="M5662 5293 c-29 -65 -107 -220 -173 -343 -151 -281 -195 -369 -176
-350 57 57 416 767 405 801 -2 6 -27 -43 -56 -108z"/>
<path d="M5831 5323 c-41 -102 -144 -292 -254 -470 -125 -203 -133 -218 -118
-208 19 11 193 281 259 400 61 110 146 309 140 327 -2 5 -14 -17 -27 -49z"/>
<path d="M6475 5258 c-29 -52 -116 -184 -229 -346 -92 -131 -58 -107 41 30
124 170 145 202 187 287 43 84 43 107 1 29z"/>
<path d="M7449 5258 c-12 -23 -57 -101 -99 -173 -81 -136 -144 -255 -138 -260
5 -5 196 322 237 404 18 34 30 65 27 68 -2 3 -15 -15 -27 -39z"/>
<path d="M5935 5198 c-27 -51 -92 -160 -143 -243 -52 -82 -96 -154 -99 -159
-4 -5 -1 -6 6 -2 38 24 298 460 289 486 -2 5 -25 -32 -53 -82z"/>
<path d="M6579 5198 c-24 -46 -98 -165 -166 -265 -67 -101 -119 -183 -115
-182 40 3 353 501 330 525 -4 3 -26 -32 -49 -78z"/>
<path d="M6062 5157 c-42 -82 -156 -256 -261 -398 -7 -11 -11 -19 -8 -19 10 0
146 178 201 262 54 83 90 150 119 221 31 73 1 35 -51 -66z"/>
<path d="M6266 5203 c-31 -63 -110 -191 -169 -271 -21 -30 -37 -56 -34 -58 6
-6 70 83 140 191 54 85 110 195 99 195 -4 0 -20 -25 -36 -57z"/>
<path d="M6760 5164 c-23 -38 -88 -129 -142 -202 -55 -74 -98 -136 -96 -138 5
-4 111 122 164 196 65 90 125 191 122 202 -2 6 -24 -20 -48 -58z"/>
<path d="M7215 5075 c-48 -80 -85 -148 -83 -150 6 -6 118 166 152 233 51 101
19 62 -69 -83z"/>
<path d="M7486 5089 c-43 -72 -76 -133 -74 -135 5 -5 77 106 123 189 66 121
30 81 -49 -54z"/>
<path d="M6894 5114 c-35 -60 -112 -161 -217 -287 -22 -26 -38 -49 -35 -52 18
-19 298 349 298 392 0 22 -6 15 -46 -53z"/>
<path d="M7085 5160 c-6 -18 -48 -84 -208 -322 -37 -55 0 -26 45 35 54 74 188
287 188 299 0 16 -19 7 -25 -12z"/>
<path d="M5489 5089 c-22 -45 -38 -83 -35 -86 5 -5 58 95 76 143 19 50 -1 21
-41 -57z"/>
<path d="M7588 5024 c-15 -27 -38 -64 -52 -83 -33 -44 -34 -62 -2 -32 28 27
89 137 84 152 -2 6 -16 -11 -30 -37z"/>
<path d="M7370 4911 c-6 -12 -7 -21 -1 -21 10 0 24 30 17 37 -2 3 -9 -5 -16
-16z"/>
<path d="M7087 4870 c-10 -16 -14 -30 -10 -30 5 0 17 14 26 30 10 17 14 30 10
30 -5 0 -17 -13 -26 -30z"/>
<path d="M6150 4778 c-12 -22 -12 -22 6 -6 10 10 15 20 12 24 -4 3 -12 -5 -18
-18z"/>
<path d="M5963 4748 c-11 -13 -28 -36 -38 -53 -16 -29 -16 -29 15 5 30 33 55
70 47 70 -2 0 -13 -10 -24 -22z"/>
<path d="M5404 4575 c-9 -14 -15 -28 -12 -30 2 -2 12 9 22 25 21 36 13 40 -10
5z"/>
<path d="M5270 4551 c-6 -12 -7 -21 -1 -21 10 0 24 30 17 37 -2 3 -9 -5 -16
-16z"/>
<path d="M5105 6298 c-3 -7 -16 -60 -29 -118 -23 -97 -25 -134 -6 -113 14 15
57 243 46 243 -4 0 -9 -6 -11 -12z"/>
<path d="M8177 3698 c-14 -45 -25 -84 -23 -86 2 -2 16 33 31 78 15 45 25 83
23 85 -2 3 -16 -32 -31 -77z"/>
<path d="M8270 3669 c-6 -24 -32 -105 -57 -179 -57 -168 -57 -169 -43 -147 17
27 89 233 105 301 16 69 12 90 -5 25z"/>
<path d="M8340 3586 c0 -10 -103 -337 -137 -434 -4 -12 -3 -14 5 -7 13 12 87
215 102 278 5 23 18 72 29 110 11 37 15 67 10 67 -5 0 -9 -6 -9 -14z"/>
<path d="M8386 3347 c-16 -45 -56 -147 -88 -227 -83 -201 -131 -330 -125 -337
8 -7 30 39 70 147 20 52 50 129 68 170 35 82 119 309 119 322 0 4 -3 8 -7 8
-5 0 -21 -37 -37 -83z"/>
<path d="M8347 2966 c-87 -181 -156 -333 -154 -340 2 -6 11 5 20 24 8 19 79
165 156 324 78 158 141 295 139 304 -2 8 -74 -132 -161 -312z"/>
<path d="M8520 3034 c-28 -59 -50 -109 -50 -111 0 -7 -152 -277 -187 -332 -19
-29 -32 -56 -29 -59 8 -7 6 -11 85 120 106 174 260 488 240 488 -5 0 -32 -48
-59 -106z"/>
<path d="M8184 3104 c-4 -10 -9 -22 -11 -26 -2 -5 0 -8 5 -8 10 0 24 41 17 48
-3 3 -8 -4 -11 -14z"/>
<path d="M7060 4620 c0 -5 5 -10 10 -10 6 0 10 5 10 10 0 6 -4 10 -10 10 -5 0
-10 -4 -10 -10z"/>
<path d="M5522 3129 c-90 -278 -229 -587 -467 -1036 -47 -90 -83 -163 -81
-163 15 0 141 230 294 535 137 274 299 690 290 748 -2 11 -18 -27 -36 -84z"/>
<path d="M5371 3153 c-38 -195 -257 -759 -397 -1019 -59 -111 -69 -141 -27
-79 87 128 305 634 398 924 31 99 57 241 43 241 -2 0 -10 -30 -17 -67z"/>
<path d="M5596 2871 c-80 -210 -161 -401 -251 -588 -78 -162 -93 -211 -31
-100 94 167 246 518 315 726 52 155 31 131 -33 -38z"/>
<path d="M5812 2948 c-74 -195 -104 -267 -194 -468 -56 -124 -112 -242 -125
-263 -14 -22 -22 -41 -20 -44 24 -24 247 456 339 730 32 97 32 131 0 45z"/>
<path d="M5982 2960 c-36 -129 -168 -443 -288 -682 -54 -108 -39 -103 21 7
130 240 291 633 283 693 -3 24 -5 22 -16 -18z"/>
<path d="M6182 2977 c-7 -16 -12 -33 -12 -38 0 -21 -89 -237 -135 -328 -41
-82 -95 -200 -141 -308 -8 -18 -11 -33 -6 -33 4 0 13 12 19 28 6 15 60 130
121 255 107 223 177 402 169 435 -3 13 -7 10 -15 -11z"/>
<path d="M7110 2878 c-63 -150 -104 -228 -187 -362 -76 -123 -92 -164 -30 -78
72 101 146 235 211 381 70 161 70 161 58 161 -5 0 -28 -46 -52 -102z"/>
<path d="M6350 2874 c-13 -32 -74 -162 -136 -287 -118 -239 -141 -293 -123
-281 12 7 234 458 268 546 13 31 21 63 19 69 -2 7 -15 -14 -28 -47z"/>
<path d="M6868 2741 c-48 -97 -112 -221 -143 -275 -30 -55 -53 -101 -51 -103
14 -14 291 513 284 541 -2 7 -42 -66 -90 -163z"/>
<path d="M7286 2859 c-32 -73 -172 -329 -224 -407 -19 -29 -32 -55 -29 -58 22
-22 297 480 285 518 -2 6 -17 -18 -32 -53z"/>
<path d="M6567 2903 c-2 -5 -21 -48 -42 -96 -20 -49 -85 -176 -142 -283 -107
-198 -135 -268 -51 -126 116 194 213 391 243 490 6 21 1 31 -8 15z"/>
<path d="M6601 2588 c-72 -143 -130 -263 -128 -264 5 -5 109 178 167 296 49
98 104 230 96 230 -2 0 -62 -118 -135 -262z"/>
<path d="M7472 2838 c-17 -23 -44 -80 -38 -85 2 -3 16 18 30 46 26 50 29 64 8
39z"/>
<path d="M7623 2818 c-6 -7 -29 -47 -53 -88 -24 -41 -80 -130 -126 -197 -46
-68 -80 -123 -75 -123 9 0 122 158 179 252 65 107 111 201 75 156z"/>
<path d="M7627 2587 c-101 -167 -130 -236 -41 -100 75 114 147 240 143 251 -2
5 -48 -63 -102 -151z"/>
<path d="M7816 2606 c-53 -81 -96 -149 -96 -152 0 -15 27 18 93 114 79 114
112 171 103 179 -3 3 -48 -61 -100 -141z"/>
<path d="M7349 2633 c-34 -54 -69 -109 -78 -123 -11 -17 -12 -22 -3 -16 16 10
152 213 152 227 0 19 -10 7 -71 -88z"/>
<path d="M7953 2633 c-12 -21 -42 -64 -67 -97 -50 -64 -61 -93 -20 -55 28 26
124 165 124 180 0 20 -17 7 -37 -28z"/>
<path d="M7210 2428 c-12 -22 -12 -22 6 -6 10 10 15 20 12 24 -4 3 -12 -5 -18
-18z"/>
<path d="M5227 2063 c-4 -3 -7 -11 -7 -17 0 -6 5 -5 12 2 6 6 9 14 7 17 -3 3
-9 2 -12 -2z"/>
<path d="M4836 1904 c-10 -14 -16 -28 -13 -30 2 -3 12 7 21 22 10 14 16 28 13
30 -2 3 -12 -7 -21 -22z"/>
<path d="M4791 3774 c0 -11 3 -14 6 -6 3 7 2 16 -1 19 -3 4 -6 -2 -5 -13z"/>
<path d="M4856 3755 c-4 -20 -10 -44 -13 -52 -4 -10 -2 -14 4 -10 12 7 28 85
20 93 -2 3 -8 -11 -11 -31z"/>
<path d="M4781 3734 c0 -11 3 -14 6 -6 3 7 2 16 -1 19 -3 4 -6 -2 -5 -13z"/>
<path d="M4828 3650 c-6 -30 -103 -352 -159 -532 -45 -147 -51 -189 -9 -73 48
133 182 594 178 613 -3 12 -6 10 -10 -8z"/>
<path d="M8916 2549 c-67 -99 -86 -145 -29 -72 37 48 113 160 113 167 0 20
-23 -7 -84 -95z"/>
<path d="M7190 2073 c1 -20 19 -35 35 -29 14 5 15 9 5 21 -13 16 -40 21 -40 8z"/>
<path d="M6170 1290 c0 -5 16 -10 35 -10 19 0 35 5 35 10 0 6 -16 10 -35 10
-19 0 -35 -4 -35 -10z"/>
<path d="M6630 1310 c0 -6 27 -10 60 -10 33 0 60 4 60 10 0 6 -27 10 -60 10
-33 0 -60 -4 -60 -10z"/>
<path d="M6425 1301 c-3 -5 -2 -12 2 -14 13 -7 83 5 83 14 0 12 -77 12 -85 0z"/>
<path d="M9305 810 c-27 -5 -73 -9 -101 -9 -53 -1 -144 -27 -144 -41 0 -18
160 -23 520 -18 36 0 92 -3 125 -7 176 -22 669 -28 785 -10 46 8 394 -11 485
-25 45 -7 79 0 58 13 -4 3 -78 10 -163 17 -176 13 -245 28 -139 29 136 2 310
14 302 22 -7 7 -337 10 -788 6 -99 -1 -209 -1 -245 0 -36 1 -144 3 -240 4
-109 0 -198 6 -235 15 -64 15 -140 16 -220 4z m118 -37 c-18 -2 -48 -2 -65 0
-18 2 -4 4 32 4 36 0 50 -2 33 -4z m1120 -10 c-7 -2 -19 -2 -25 0 -7 3 -2 5
12 5 14 0 19 -2 13 -5z m-135 -20 c-10 -2 -26 -2 -35 0 -10 3 -2 5 17 5 19 0
27 -2 18 -5z"/>
<path d="M734 789 c-2 -5 11 -11 31 -15 19 -3 39 -13 43 -21 17 -29 366 -37
422 -10 29 15 39 15 128 -4 108 -23 347 -38 363 -22 7 7 -32 13 -113 17 -68 4
-163 16 -213 27 -105 24 -226 40 -238 32 -4 -2 -3 -11 3 -18 24 -29 -99 -34
-230 -9 -124 24 -191 31 -196 23z"/>
<path d="M11071 766 c11 -10 139 -16 139 -6 0 6 -29 10 -72 10 -39 0 -69 -2
-67 -4z"/>
<path d="M1483 697 c5 -17 66 -35 197 -58 95 -17 138 -19 250 -14 74 4 166 13
203 21 89 18 214 18 289 -1 32 -9 111 -22 174 -29 64 -7 121 -19 127 -26 12
-13 -9 -11 -85 6 -37 8 -37 -13 -1 -27 76 -29 185 -39 408 -39 127 0 245 4
262 9 25 7 61 2 165 -24 l133 -34 -97 2 c-82 2 -101 5 -127 25 -36 26 -54 28
-49 5 4 -26 68 -53 149 -66 55 -8 99 -8 192 3 67 8 165 14 217 14 89 1 96 2
105 24 7 17 15 21 30 17 63 -21 169 -36 313 -45 123 -8 170 -15 190 -28 l25
-16 -24 -7 c-57 -16 -317 -8 -421 13 -7 2 -13 -4 -13 -12 0 -27 334 -97 575
-121 165 -16 577 5 636 32 54 25 68 24 181 -13 88 -29 113 -33 243 -37 276 -8
536 -3 564 12 38 19 -8 25 -142 19 -72 -4 -132 -4 -132 1 0 4 11 7 25 7 39 0
29 18 -17 31 -41 11 -286 18 -408 11 -85 -5 -238 14 -305 38 -92 33 -222 38
-309 11 -37 -11 -88 -21 -113 -21 -24 0 -64 -5 -87 -11 -30 -7 -64 -8 -106 -1
-102 15 -144 -8 -47 -27 139 -27 147 -30 57 -25 -95 5 -305 33 -334 44 -12 4
21 9 78 13 56 4 111 13 131 23 22 10 47 14 67 10 35 -6 81 0 243 33 120 24
180 25 305 6 52 -8 124 -15 160 -15 36 0 108 -5 161 -12 70 -8 116 -9 165 -1
55 8 80 7 124 -6 67 -18 237 -20 540 -4 207 11 270 21 270 43 0 12 9 13 -137
-5 -86 -10 -139 -11 -179 -5 -31 5 -59 11 -61 14 -9 8 186 18 234 11 39 -5 52
-3 62 9 8 9 21 16 30 16 9 0 23 6 30 13 10 10 14 8 22 -6 29 -51 225 -66 424
-32 23 4 27 3 17 -7 -7 -7 -12 -15 -12 -20 0 -13 154 -56 263 -72 133 -20 220
-20 292 -2 48 13 64 13 128 0 52 -12 98 -14 163 -9 64 4 126 1 205 -11 83 -12
141 -14 214 -9 55 3 117 6 137 6 26 0 40 5 47 18 7 13 18 16 39 13 33 -4 53
15 31 29 -19 13 -85 5 -139 -17 -36 -14 -72 -18 -190 -18 -173 1 -242 18 -115
28 44 4 89 8 100 9 11 1 18 7 15 12 -3 6 -81 10 -200 10 -191 1 -196 2 -260
29 -73 31 -169 58 -182 50 -5 -3 -7 -13 -6 -22 3 -15 -12 -18 -107 -25 -143
-10 -250 -4 -300 17 -38 16 -39 18 -21 32 12 8 43 14 77 14 59 0 79 10 56 27
-12 10 -85 5 -230 -17 -89 -13 -261 -2 -407 26 -47 8 -89 16 -95 17 -5 1 -9
-6 -7 -15 3 -16 -8 -18 -99 -18 l-101 0 6 -24 6 -24 -177 -7 c-187 -8 -326 2
-426 31 -28 9 -83 20 -122 25 -38 5 -115 18 -171 27 l-100 18 -26 -28 c-25
-27 -30 -28 -116 -28 -50 0 -94 4 -97 10 -3 5 -44 10 -90 10 l-84 0 2 28 c2
30 6 30 -128 14 -33 -4 -94 -5 -135 -2 -69 5 -72 6 -47 17 15 7 27 20 27 29 0
13 -6 15 -32 10 -113 -23 -185 -27 -296 -16 -64 7 -120 14 -124 16 -4 2 -9 0
-12 -5 -4 -5 -2 -13 4 -16 19 -12 183 -35 248 -35 34 0 79 -7 100 -16 38 -16
264 -56 386 -69 84 -8 72 -18 -42 -35 -121 -18 -223 -8 -407 40 -195 52 -279
55 -553 21 -229 -29 -371 -26 -481 10 -41 13 -77 31 -79 38 -3 10 0 12 14 7
51 -20 177 -47 244 -53 62 -5 78 -3 89 11 11 13 33 16 107 16 93 0 123 12 63
24 -17 3 -51 6 -75 6 -24 0 -86 6 -137 14 -183 28 -188 28 -194 6 -7 -25 -13
-25 -60 0 -67 34 -204 44 -413 30 -261 -18 -493 -3 -628 39 -53 16 -76 18
-159 11 -54 -5 -118 -13 -143 -18 -25 -6 -106 -14 -181 -18 -146 -7 -263 4
-377 37 -44 12 -62 14 -59 6z m1846 -86 c11 -7 7 -13 -15 -27 -40 -27 -291
-34 -326 -10 -12 9 -33 16 -47 16 -49 0 -12 11 65 19 108 11 306 13 323 2z
m2204 -107 c36 -4 61 -12 64 -21 3 -8 20 -20 37 -28 29 -14 23 -15 -74 -9 -58
3 -154 7 -214 9 -132 5 -171 25 -48 25 71 0 85 3 100 21 12 15 25 19 47 15 17
-3 56 -8 88 -12z m-1120 -1 c-7 -2 -19 -2 -25 0 -7 3 -2 5 12 5 14 0 19 -2 13
-5z m1312 -13 c3 -6 -1 -7 -9 -4 -18 7 -21 14 -7 14 6 0 13 -4 16 -10z m92
-16 c-3 -3 -12 -4 -19 -1 -8 3 -5 6 6 6 11 1 17 -2 13 -5z m1452 -45 c36 -5
67 -12 70 -16 12 -12 -115 5 -149 21 -24 11 -27 14 -10 11 14 -3 54 -10 89
-16z m380 -3 c9 -11 0 -16 -53 -26 -78 -14 -110 -8 -44 8 26 7 50 16 53 22 9
14 31 12 44 -4z m-2419 -56 c-37 -12 -199 -12 -180 0 8 5 58 9 110 9 63 -1 87
-4 70 -9z"/>
<path d="M7360 586 c46 -18 150 -33 275 -41 60 -4 106 -12 115 -20 30 -26 305
-67 535 -80 124 -7 286 7 318 28 18 11 42 12 124 4 84 -7 110 -6 148 7 44 14
54 14 183 -11 120 -22 153 -25 267 -20 72 4 166 13 210 21 44 9 136 16 207 16
118 0 190 11 174 28 -13 12 -240 1 -396 -20 -187 -25 -328 -26 -430 -2 -57 13
-123 17 -278 18 -182 1 -205 3 -216 19 -17 22 -26 21 -128 -3 -75 -18 -204
-27 -438 -32 -66 -2 -255 31 -243 42 14 13 199 20 210 9 14 -14 65 -8 70 8 3
6 -8 18 -24 26 -25 13 -45 13 -163 0 -112 -13 -160 -13 -280 -4 -302 24 -280
23 -240 7z m1200 -95 c-19 -11 -127 -25 -118 -15 10 9 67 22 103 23 21 0 26
-2 15 -8z"/>
<path d="M1780 502 c0 -10 58 -31 130 -47 14 -3 140 -16 280 -30 146 -14 287
-34 330 -45 41 -11 140 -31 220 -45 446 -75 392 -70 715 -70 299 0 300 0 418
29 109 28 122 29 175 18 31 -7 98 -19 147 -27 50 -8 151 -29 225 -47 l134 -31
137 13 c82 7 153 9 176 4 21 -4 99 -8 173 -9 94 0 171 -7 253 -23 156 -29 310
-29 443 -1 89 18 116 20 259 13 88 -5 189 -8 225 -7 95 3 122 3 155 0 26 -2
30 2 33 25 2 16 5 28 6 28 2 0 54 -13 117 -29 220 -57 310 -61 619 -25 121 14
125 14 152 -6 14 -11 46 -24 70 -30 57 -13 678 -13 713 0 26 10 30 39 4 30
-22 -8 -628 -12 -688 -5 -42 5 -60 13 -78 34 l-24 27 -132 -18 c-102 -15 -175
-18 -317 -15 -175 3 -192 5 -324 40 -76 20 -149 37 -162 37 -30 0 -40 -18 -18
-34 15 -12 11 -14 -37 -21 -67 -9 -108 -10 -339 -5 -123 2 -199 0 -226 -8 -92
-27 -237 -33 -366 -17 -68 8 -139 19 -158 25 -78 23 -381 31 -576 16 -102 -8
-119 -6 -215 17 -57 15 -135 31 -174 37 -38 6 -114 20 -168 31 l-98 21 -92
-26 c-155 -43 -210 -48 -464 -44 -223 4 -256 7 -518 48 l-280 45 140 7 c77 4
158 12 181 18 33 10 51 9 95 -5 109 -33 423 -85 511 -85 73 0 168 17 168 30 0
4 56 11 124 15 93 5 126 11 130 21 3 8 19 14 36 14 19 0 30 5 30 14 0 22 -32
24 -90 5 -48 -15 -97 -18 -388 -18 -346 -1 -436 6 -529 41 -29 11 -83 28 -119
38 -61 18 -69 18 -96 4 -59 -31 -194 -47 -338 -40 -248 11 -521 40 -677 72
-21 4 -33 3 -33 -4z"/>
<path d="M9467 448 c-22 -13 17 -16 278 -23 143 -3 281 -8 308 -12 39 -5 47
-3 47 11 0 9 -1 17 -2 18 -10 5 -622 12 -631 6z"/>
<path d="M8710 444 c0 -3 14 -10 30 -15 17 -6 30 -14 30 -18 0 -4 -34 -12 -76
-18 -42 -6 -83 -18 -92 -26 -14 -14 -12 -17 14 -24 16 -4 84 -8 151 -8 109 0
124 2 151 22 27 20 35 21 98 12 38 -6 128 -9 199 -8 86 2 145 -2 175 -10 33
-10 75 -11 160 -6 63 4 129 8 145 7 204 -6 388 -3 398 7 21 21 -6 30 -63 19
-56 -10 -258 -4 -335 10 -25 5 -56 3 -84 -5 -68 -20 -189 -17 -234 6 -30 15
-45 17 -70 10 -69 -21 -259 -11 -417 21 -153 31 -180 34 -180 24z m155 -64
c-28 -12 -47 -12 -40 0 3 6 18 10 33 9 24 0 25 -1 7 -9z"/>
<path d="M6885 390 c-11 -5 -52 -9 -92 -9 -66 -1 -95 -12 -78 -29 4 -4 39 -7
78 -8 40 0 91 -6 114 -13 56 -15 295 -11 300 6 3 7 -11 14 -34 17 -21 3 -67
13 -103 23 -78 20 -158 26 -185 13z"/>
<path d="M1840 351 c0 -15 12 -20 96 -41 42 -10 81 -23 86 -28 12 -12 -240
-27 -308 -19 -29 3 -61 16 -89 36 -24 17 -50 31 -58 31 -8 0 -48 -16 -88 -35
-111 -52 -175 -65 -319 -65 -127 0 -224 13 -382 48 -97 22 -120 12 -32 -14
132 -38 244 -56 384 -61 169 -6 240 7 360 63 l76 35 59 -36 60 -36 215 3 c159
2 221 -1 238 -10 42 -24 196 -52 317 -58 93 -5 145 -3 229 11 93 15 143 17
334 11 179 -5 223 -4 220 6 -4 10 -71 15 -279 19 -334 8 -393 16 -500 70 -33
16 -39 17 -80 2 -38 -13 -59 -13 -149 -3 -117 13 -317 53 -348 69 -25 13 -42
14 -42 2z m505 -96 c76 -1 125 -6 158 -18 26 -9 65 -20 87 -23 22 -4 43 -10
45 -14 9 -14 -150 -21 -244 -10 -123 14 -169 25 -233 55 l-53 25 65 -7 c36 -4
115 -8 175 -8z"/>
<path d="M8542 179 c8 -25 108 -51 218 -56 78 -4 137 0 230 15 78 13 128 18
135 12 15 -13 51 13 41 28 -10 17 -47 15 -156 -8 -148 -31 -306 -25 -449 16
-18 5 -23 4 -19 -7z"/>
<path d="M9438 99 c-35 -20 -43 -20 -165 -9 -244 21 -299 23 -288 12 6 -6 69
-18 140 -27 71 -9 131 -18 133 -20 15 -14 -96 -20 -398 -20 -371 0 -540 12
-673 47 -76 21 -78 21 -175 3 -119 -23 -254 -23 -392 -2 -95 15 -112 15 -175
1 -128 -27 -406 -34 -628 -15 -109 9 -201 13 -203 9 -3 -4 -1 -8 5 -8 5 0 83
-9 173 -21 138 -18 195 -20 373 -16 144 4 230 11 275 22 60 15 74 15 177 0
147 -21 294 -21 407 0 89 17 93 17 167 -3 135 -37 278 -47 669 -46 306 2 376
5 430 19 36 9 86 20 112 24 26 4 56 15 66 24 18 16 26 16 138 -4 81 -14 182
-22 314 -26 203 -5 275 2 275 27 0 12 -11 14 -55 10 -123 -11 -405 -3 -500 14
-149 28 -161 28 -202 5z"/>
</g>
</svg>
